<mxfile host="app.diagrams.net" agent="Mozilla/5.0 (Windows NT 10.0; Win64; x64) AppleWebKit/537.36 (KHTML, like Gecko) Chrome/131.0.0.0 Safari/537.36" version="26.0.8">
  <diagram name="Page-1" id="eR5tEOljEV8_PbnA8n5L">
    <mxGraphModel dx="880" dy="426" grid="1" gridSize="10" guides="1" tooltips="1" connect="1" arrows="1" fold="1" page="1" pageScale="1" pageWidth="827" pageHeight="1169" math="0" shadow="0">
      <root>
        <mxCell id="0" />
        <mxCell id="1" parent="0" />
        <mxCell id="HWHILHlx0ey19ZuAZwEL-4" value="" style="edgeStyle=orthogonalEdgeStyle;rounded=0;orthogonalLoop=1;jettySize=auto;html=1;" edge="1" parent="1" source="HWHILHlx0ey19ZuAZwEL-1" target="HWHILHlx0ey19ZuAZwEL-2">
          <mxGeometry relative="1" as="geometry" />
        </mxCell>
        <mxCell id="HWHILHlx0ey19ZuAZwEL-1" value="&lt;h3 style=&quot;text-align: left;&quot;&gt;&lt;strong&gt;A Language&lt;/strong&gt;&lt;/h3&gt;&lt;h3 style=&quot;text-align: left;&quot;&gt;&lt;span style=&quot;background-color: transparent; color: light-dark(rgb(0, 0, 0), rgb(255, 255, 255)); font-size: 12px; font-weight: normal;&quot;&gt;1966,&amp;nbsp;&lt;/span&gt;&lt;span style=&quot;background-color: transparent; color: light-dark(rgb(0, 0, 0), rgb(255, 255, 255)); font-size: 12px; font-weight: normal;&quot;&gt;Ken Thompson at Bell Labs,&amp;nbsp;&lt;/span&gt;&lt;span style=&quot;background-color: transparent; color: light-dark(rgb(0, 0, 0), rgb(255, 255, 255)); font-size: 12px; font-weight: normal;&quot;&gt;low-level language for systems programming.&lt;/span&gt;&lt;/h3&gt;&lt;h3 style=&quot;text-align: left;&quot;&gt;&lt;strong style=&quot;background-color: transparent; color: light-dark(rgb(0, 0, 0), rgb(255, 255, 255)); font-size: 12px;&quot;&gt;GE-600 series computers&lt;/strong&gt;&lt;/h3&gt;&lt;h3 style=&quot;text-align: left;&quot;&gt;&lt;span style=&quot;background-color: transparent; color: light-dark(rgb(0, 0, 0), rgb(255, 255, 255)); font-size: 12px; font-weight: normal;&quot;&gt;It was limited in features and lacked portability.&lt;/span&gt;&lt;/h3&gt;" style="rounded=0;whiteSpace=wrap;html=1;" vertex="1" parent="1">
          <mxGeometry x="120" y="160" width="480" height="120" as="geometry" />
        </mxCell>
        <mxCell id="HWHILHlx0ey19ZuAZwEL-5" value="" style="edgeStyle=orthogonalEdgeStyle;rounded=0;orthogonalLoop=1;jettySize=auto;html=1;" edge="1" parent="1" source="HWHILHlx0ey19ZuAZwEL-2" target="HWHILHlx0ey19ZuAZwEL-3">
          <mxGeometry relative="1" as="geometry" />
        </mxCell>
        <mxCell id="HWHILHlx0ey19ZuAZwEL-2" value="&lt;h3 style=&quot;text-align: left;&quot;&gt;&lt;strong&gt;B Language&lt;/strong&gt;&lt;/h3&gt;&lt;h3 style=&quot;text-align: left;&quot;&gt;&lt;span style=&quot;background-color: transparent; color: light-dark(rgb(0, 0, 0), rgb(255, 255, 255)); font-size: 12px; font-weight: normal; text-align: center;&quot;&gt;1969&amp;nbsp;&lt;/span&gt;&lt;span style=&quot;background-color: transparent; color: light-dark(rgb(0, 0, 0), rgb(255, 255, 255)); font-size: 12px; font-weight: normal;&quot;&gt;,&amp;nbsp;&lt;/span&gt;&lt;span style=&quot;background-color: transparent; color: light-dark(rgb(0, 0, 0), rgb(255, 255, 255)); font-size: 12px; font-weight: normal;&quot;&gt;Ken Thompson at Bell Labs,&amp;nbsp;&lt;/span&gt;&lt;span style=&quot;background-color: transparent; color: light-dark(rgb(0, 0, 0), rgb(255, 255, 255)); font-size: 12px; font-weight: normal;&quot;&gt;low-level language for systems programming.&lt;/span&gt;&lt;/h3&gt;&lt;h3 style=&quot;text-align: left;&quot;&gt;UNIX operating system&lt;/h3&gt;&lt;h3 style=&quot;text-align: left;&quot;&gt;&lt;span style=&quot;background-color: transparent; color: light-dark(rgb(0, 0, 0), rgb(255, 255, 255)); font-size: 12px; font-weight: normal; text-align: center;&quot;&gt;it lacked data types, making it unsuitable for complex systems programming.&lt;/span&gt;&lt;/h3&gt;" style="rounded=0;whiteSpace=wrap;html=1;" vertex="1" parent="1">
          <mxGeometry x="120" y="360" width="480" height="120" as="geometry" />
        </mxCell>
        <mxCell id="HWHILHlx0ey19ZuAZwEL-13" value="" style="edgeStyle=orthogonalEdgeStyle;rounded=0;orthogonalLoop=1;jettySize=auto;html=1;" edge="1" parent="1" source="HWHILHlx0ey19ZuAZwEL-3" target="HWHILHlx0ey19ZuAZwEL-12">
          <mxGeometry relative="1" as="geometry" />
        </mxCell>
        <mxCell id="HWHILHlx0ey19ZuAZwEL-3" value="&lt;h3 style=&quot;text-align: left;&quot;&gt;&lt;strong&gt;C Language&lt;/strong&gt;&lt;/h3&gt;&lt;h3 style=&quot;text-align: left;&quot;&gt;&lt;span style=&quot;background-color: transparent; color: light-dark(rgb(0, 0, 0), rgb(255, 255, 255)); font-size: 12px; font-weight: normal;&quot;&gt;1972, Denis Ritchie&lt;/span&gt;&lt;span style=&quot;background-color: transparent; color: light-dark(rgb(0, 0, 0), rgb(255, 255, 255)); font-size: 12px; font-weight: normal;&quot;&gt;&amp;nbsp;at Bell Labs, middle-level&lt;/span&gt;&lt;span style=&quot;background-color: transparent; color: light-dark(rgb(0, 0, 0), rgb(255, 255, 255)); font-size: 12px; font-weight: normal;&quot;&gt;&amp;nbsp;language for systems programming.&lt;/span&gt;&lt;/h3&gt;&lt;h3 style=&quot;text-align: left;&quot;&gt;&lt;span style=&quot;font-size: 12px;&quot;&gt;Used to develop operating systems(UNIX, MAC OS) for the machine.&lt;/span&gt;&lt;/h3&gt;&lt;h3 style=&quot;text-align: left;&quot;&gt;&lt;span style=&quot;background-color: transparent; color: light-dark(rgb(0, 0, 0), rgb(255, 255, 255)); font-size: 12px; font-weight: normal;&quot;&gt;Limited to procedural programming only which is very tightly coupled and lacks OOPS.&lt;/span&gt;&lt;/h3&gt;" style="rounded=0;whiteSpace=wrap;html=1;" vertex="1" parent="1">
          <mxGeometry x="120" y="560" width="480" height="120" as="geometry" />
        </mxCell>
        <mxCell id="HWHILHlx0ey19ZuAZwEL-7" value="" style="edgeStyle=orthogonalEdgeStyle;rounded=0;orthogonalLoop=1;jettySize=auto;html=1;" edge="1" parent="1" source="HWHILHlx0ey19ZuAZwEL-6" target="HWHILHlx0ey19ZuAZwEL-1">
          <mxGeometry relative="1" as="geometry" />
        </mxCell>
        <mxCell id="HWHILHlx0ey19ZuAZwEL-6" value="&lt;b&gt;&lt;font style=&quot;font-size: 33px;&quot;&gt;Invention of C++&lt;/font&gt;&lt;/b&gt;" style="rounded=1;whiteSpace=wrap;html=1;" vertex="1" parent="1">
          <mxGeometry x="120" y="40" width="480" height="60" as="geometry" />
        </mxCell>
        <mxCell id="HWHILHlx0ey19ZuAZwEL-9" value="EXAMPLES" style="rounded=1;whiteSpace=wrap;html=1;" vertex="1" parent="1">
          <mxGeometry x="660" y="40" width="120" height="60" as="geometry" />
        </mxCell>
        <mxCell id="HWHILHlx0ey19ZuAZwEL-10" value="&lt;img alt=&quot;&quot; src=&quot;data:image/png;base64,iVBORw0KGgoAAAANSUhEUgAAALkAAADHCAYAAABFhfLtAAAAAXNSR0IArs4c6QAAAARnQU1BAACxjwv8YQUAAAAJcEhZcwAADsMAAA7DAcdvqGQAABJCSURBVHhe7d1vTFRnvgfw7953Z2Z4M8MfJbW4m8C88FoqGkwNC0vTWwLE2UWRJbDbW7UI7lrWFdOAugVjlUlTXGv/ia51N7mQWUTZ4gUyXiOBNRBMq6XWuxnYWEa8ygzMvBHm3Hf3vijP6cyZMzB/DsyZh98n4QXnnOHP8D3Peebh/H7zo2+//fb/MjMzQQiv/kW+gRDeUMgJ9yjkhHsUcsI9CjnhHoWccE9zIW+1tqHUUgHHxKR8V9g6bd1otbYFbeu0dQdsi9TI6BjyC4tRWb0PHq9XvptolOZCHquR0TH03ujHgQN7A7YXvf4qem/0Y2R0LGB7uDxeL85/3A7rmRbYOj6HyWiUH0I0SnMhb2psQF9vF8xZkf+DigWx/lBtUAhNRiNONjfhyp87ohqF5+Y8SDIYYDZH/nOR+FIt5COjYzjx7ikcPtKIUksF/tbbh1JLBQ4faYQoitIx+YXF0of/qOqYmESppUJxOiCKIk68ewojo2OorN6neAwA2G/eRvbmTdjxyvaA7Yw5KxM/+XEG7Ddvy3cRjqkWcgAY/vsIKvaUIW/Hdtj+eg1//OAMFhZ8eDz9BB6vF//9DweGBwcwPDgA65kWnP+4XQqqOSsTfb1duNR+HkkGg/xLY35+Aadb23CyuQn2/utYl5YaEFZRFHH37pcoKMgLeJxcQUEe7t79UjrxCP9UDXnOlmxsefklAIBlZwlMyT9MGUxGI97a94b0udmciSSDAXNzHmnbco43NcCclQlBEJCbuw3OKae0zyeKWFjwwWRaeq5sMhmxsOCDL8KQezxe6PU66ARBvotonKohX06rtU2aqpTtrsbTZzPyQ6I2N+fB8+fP5ZuDJCebgMXjw8GmUUNDd3DurBUChTzhrFrIO23dGH/wED3XOjA8OICeax1IX79OfljUkpNNSEpKkm8OwsLNwr4cNo0qKMgLeH1BEseqhRwA1qWlSpf7ixevqDqS6wQBer0OHs/SKyfRTjuineaQ+Fu1kBe9/ipmXG4UlexCfmExBJ0uYCTvtHUjv7AYNbX1cExMomx3teIKSihsnt51tWfJ0XZo6A5yc7fRtGMN+RFPRRMerxe/ffso6g/VKi4jOiYm8UHbR7C2tgStoy8nlseS+Fq1kXw1mIxG1B+qDViaZDxeL5pPtmLvm9VRhTTSF6xEO7gKOQDseGU7LDtLcPHilYDt9pu3YdlZojjCh8NkNGLvm9Woqa2PaBpF4o+r6QohSrgbyQmRo5AT7lHICfco5IR7FHLCPQo54R6FnHCPQk64RyEn3KOQE+5RyMPAbgOOtp0FiS8uQj4yOkZVOyQkLkK+0qoqyzE8OBD1HYwkvjQRclEUcfhIo1TkLO/V4v+5x+uVqodYkXHjsRbcuz8uVR353wrr8XqlXi3yr70c/8eGal3HjpG3pSPaoYmQ2//rNg7W7cfw4ADs/dcBAD1f9MkPC8KKjK1nWpCzJRv2/usYHhyQ2riJoohT770Py86SgK997sNP5V9KkclohK3jc9WLrsnq0kTIf2EpldrCKfVUidb9r7/5vq709VeBxa99sG4/Hn3nVK3ogZ0ITY0N8l1EIzQRcv8WcfmFxbjQfll+SNT8OwSQtSnuIWe1l9VVFVILubra/fLDojbjcge0kfB4vHg+Px9wDOFb3EPObMzYACyO6h2dXQH7WFDZHFver8VkMmJmxoXH008CtrMOtKxnoiiK6Lra830LuyiKmZWwF56RvKAlqyvuITcZjbDsLEHjsRbkFxaj+WQr/u21Qmn/jle2I3vzJpTtrkZRyS787Gc/DXoRaM7KhMVSipra+oDVFZPRiE8++gC9N/qRX1iMopJdSEtNQVVlecDjQ2FdeMt2V8MxMYma2vqgVRadIGBdWiom//ko6CQj2kCFzCpotbbB5Z5F6+lmalqkQXEfyRMZG+kp4NpGIznhHo3khHsUcsI9CjnhHoWccI9CTrhHISfco5AT7lHICfco5IR7FHLCPQo54Z5mQk73ZZOVopmQx4u8mr/T1i0/hCS4NX0XoiiKaDp+Erm521BVWQ7HxCSOHD2O400N1GOFI5oYyVkbtvzC4lXtXyKv5jdnZSJvx3YMDd0JOK7T1h1UEUQShyZCzjpUqVnAHI4p5zSyN2+S6j07bd0YsN+Cyz1Lrws4oomQx6LV2iZdBdhHpKMuq/C5e/dLnD/3PhYWfAEV/lWV5ejr7ZJ6w5DEkvAhb2pskFpZsI9IAjlgv4Wuqz2w91/HubNW+Hw+6PU66tXCkYQPeSwj+caMDUhPX48/nHhHqs+cck4jLTWF6jU5kvAhj2UkZ31ZLl68AiwuJ/be6EdBQV7AcdSfPLHFPeT+HW0vtF/GgP3Wqq2ysL4s4w8eIn+xv0r9odqg5UPW+Ei+6kISw5peJw8XrZ8ntriP5FrGrjI1tfUU8ARGIznhHo3khHsUcsI9CjnhHoWccI9CTrhHISfco5AT7lHICfco5IR7FHLCPQo54Z7mQz4yOhZWL5ZWa5tiscRqFUmH+jnZu02v5PdWm8frxeEjjTG9Nbv/LdTxbvOh+ZDHajWKpB0Tkzj/0QUcrNuvqYqipYo9/E9+9r6njMloRG7uNpx67/2gkzZcPV/0AQDs/dfDft/UlcJNyJsaG8KuCFKTKIr47MJlWCylit/bnJWJvt4uNDU2yHdFpNXaFvaIyEZRt3sW6enr5bsxMjqG3hv96LnWgeHBAWRv3hQU6KrKcqSlpkhhjZRzyonc3G2aOOnjHnKlPx77I/mPQP/R2SWNPP7Hs+mA0ogUjlg7aN3/+hsAQNnPS+W7AupPI/26DHsuXO5Zxe+hpOeLPlTsKcOvf/VL+S7Ft17ftcui+Lbtu3ZZMDg4HPFzqjVxD3nGxgw4p5zyzQHu3R/H3OwchgcHYD3Tgt4b/dITz0bKS+3nkWQwyB+6JFEUceq992HZWYLhwQH0XOtA741+xct7KENDd0KOWKz+tLjoNfmusHi8Xux967dIS03BubNWxe+hpKqyPGSBh08UsbDgw9acbGDxezSfbMXTZzPweALD/OKGF6DX6+BwLF8UrmVxDzmrn4TfqM7+ECbT9yNNzpZsHP7db4DF4uMkgwFzcx7pcdF6PP0EBoNeGiFNRiMsO0vCruUURREu92zA76AWx8Qk3nizDpadJTFPdZSI4v/i8JFGqa61uOg1TDmnA44RBAFpqSlB25ezks9LNOIecpPJiAWfD9NP/gcA4PP5AAB6vQ7JySbZ0eryeLwY/vsIikp2SdOKC+2X5YeF5BNFzLjc8s2q+OreOJ4/fy7frIrn8/OoP/wOKvaUYXhwAFtefilkKMO50vprtbah/Jf/joN1+0NeTVZb3EOenGzC/PwCvrr3NTI2ZgAAHI5JGAz6VWnwk7MlG/b+6wEtLcIdOXWCgHVpqfLNqqiqLJemT2ouP7Kfua72hxDKr5z+nFNO6e8SjqbGBnT/9S/47MLliKZ9KynuIWdmZ+ewNScbOp0OQ0N3oNfpwp6DRstszsSMyx31CkK0l/NwmYxGXPnTJ3C5ZxXX4KMhCAJyc7eho7NL+p+C/eZt6PU6vLjhhYBjo512rPTzEqm4h5yN1g8f/gMvbngBW3OycWdkLOzRg6331tTWwzExibLd1dIqi/8/JJR6urC+K703+qXpSn6IdeVQCgryAl4IM/6rNgP2W7jQfjmqVRZBEHDurDWi5TzW27FsdzWePn2GxmMtAb9XVWU5qqsqUFNbj/zFHpCtp5uDBpXH00+wsOCTmjAlKqrWj5Eo63HOk1ZrGzI2ZkT1e8XyWLXFfSRPdIIg4GDdfvT29gXdUpDIOm3dEa3Ny0X6gnUlUchVYM7KRP3bdfjswmVV5s3x5vF6cffulwGNUCNV9vNSuNyzUU3R1EbTFcI9GskJ9yjkhHsUcsI9CjnhHoWccI9CTrhHISfco5AT7lHICfco5IR7FPIoKRVbrxSP1yvdSizfXlm9L+p7Qzpt3VEVf8eK/dxK98g7JiZx4t1TQdtjseZDvpphjQYrti4szFdsebEU1i1Aq7+bEnNWJvQ6Hc59+Kl8V9TWfMi1jhVKLHXLq1Lljsfrhcs9iyO/P7RkYfa6tNRVKTP0ZzIaYev4PGQHgsO/+w1c7lnVTs6ED3mnrRudtu6AHifsyVEapdmxWBzpikp24d79cal6Rn5rqH91Ub5Cbxf37JxUASTfJ+/p4l+r6ZiYRE1tPSYm/ikdI798e7xeDA4Oh+zMxcKiVDDM2khszXkZLves4pSkqrI8ZNCWw363SIPIKrnkz4c/QRBQsacMXVd7FKctnbZuxZaAoSR8yAHgQvtlZGzMkPqynP+4XfGPKtfU2AB7/3XkbMmG9UyLVMjMqllY1U9aaoq0z9bxudSUBwAu/ekvONncBHv/daxLS4X95m1pX8/f/hOffPSB1NNl/MHDgFA8fTaD3x89hpPNTei51oEZl1tqVoTFoCrVXoaD9YNJXixO1krvlHDb9pnNmVhY8AU1PIoGFyEvLnpNCqaafVnuf/0NZlxuHDiwV75LcrypAeasTKlA2L8a5q19b0gnhMloRPbmTUHFvezxSvunnNNIS02JeKT1eL149J0TW3OypZ9rqSmLFukEAXq9LqjhERZPlEhaAnIRcrnn8/OKT06kppzTMc1ZWUEx+xiw3wrYn75+XUCRcFNjQ0BNZLTlY/IrwNacbDz6zhnW1W05bFooL5KWT9VipWbFP5chTzIYFHuIRErpBV24HBOTON3aFjANirRdXLgdC+SGhu7g3v1xqWkSW35UY8rCWt/1XOtAevp66feTT+NiFW07DCXchfzixStB81g2GoyMjgV1yGIjhtLlPNa+LEkGvXSyjYyOBY3ky9mYsQEu96zii69QWDj8Ty52gin9jlq1VMMj9uI13Be9XISc9VPJLyyGyz0r9RBhlfQdix1xu6724Ne/qpQ/HAcO7MX4g4fS12CrK0p9WcK9LJuzMpH90r9KvU26rvYg/6c75IctiZ1k/i9GlxOqV0pBQR7GHzwM62dfKcv1wfEnn3L5Y6N7uCdtwhcyd9q64Zxyht3aLdF02rpDNv/hFVvVqthTprw8OjGJI0eP43hTg+J+OS5Gcp6xfwJFO2VKROc+/BRpqSlBAWZXgpra+rADDgq59gmCgD+ceAeDg8Nh//MjkTkmJrHg80mtuv0Jiy3zhgcHwg44eJiuELIcGskJ9yjkhHsUcsI9CjnhHoWccI9CTrhHISfco5AT7lHICfco5IR73IS81doWUXGrWpbqIUK0gZuQr0WOiUmUWioU78cmP6AbtBIUu8/cYNBDr9Nxez+9GhJ+JGejWSRVO2oJp4fIckZGxyL+uR0Tk3C7Z3HurBV6nU6+WxJpfxJeJXzIzVmZ6OvtwqX280gyGOS7V1S4PUTUZs7KxOH6g/LNJISED3ks/K8C/h/RjspaE2l/El6t6ZCzq4B/Vfvw4MCKz2/928c1HmvB06fPULa7mqsTTEvWdMjjNZKzHobDi23t0tPXo+dax6qcYGvRmg55vEby1RJpfxJeJXzI2R+SdYkq210d8WpFNCLpIaI2/+nOgP1WyO8daX8SXtE6Occi7U/Cq4QfyUmwaPuT8IpGcsI9GskJ9yjkhHsUcsI9CjnhHoWccI9CTrhHISfco5AT7lHICfco5IR7FHLCPU2EnN0uS71LyErQRMhZQXBaasqaepczsjo0EXKmoCAv6veTJyQUTYWckJVAISfc01TITSYjHn3nXPH6TLK2aCrk5qxMHG14G2+8WRdUlEtItDRV/jYyOoauqz1oPd0MQRDkuwmJiqZGcgBIS02hgBNVaS7khKiNQk64p6mQDw3dQcbGDPlmQmKiiZCze1fGHzxE0euvyncTEhNNra4QshI0MZITspIo5IR7FHLCPQo54R6FnHCPQk64RyEn3KOQE+5RyAn3KOSEe6qE3P8t99b6e0YS7VEl5Owdhi+1n8eVP3dQjSbRFFVCzry44QWkpaVgbs4j30VI3KgackK0iEJOuKdqyAVBgF6nw1f3xuW7CIkbVUMOAE2NDXBOOVFqqYBjYlK+m5BVp2rI2Xu6FxTkoa+3C+Ysqjgi8adqyAHAYNDDZDLKNxMSN6qHnBCtoZAT7qka8sfTT+ByzSI52STfRUjcqBJydu9KTW09CgvzYTLSnJxoB/VdIdxTZSQnRMso5IR7FHLCPQo54R6FnHCPQk64RyEn3KOQE+5RyAn3KOSEe/8PHGX09s4qTMAAAAAASUVORK5CYII=&quot;&gt;" style="rounded=0;whiteSpace=wrap;html=1;" vertex="1" parent="1">
          <mxGeometry x="660" y="410" width="120" height="20" as="geometry" />
        </mxCell>
        <mxCell id="HWHILHlx0ey19ZuAZwEL-15" value="" style="edgeStyle=orthogonalEdgeStyle;rounded=0;orthogonalLoop=1;jettySize=auto;html=1;" edge="1" parent="1" source="HWHILHlx0ey19ZuAZwEL-12" target="HWHILHlx0ey19ZuAZwEL-14">
          <mxGeometry relative="1" as="geometry" />
        </mxCell>
        <mxCell id="HWHILHlx0ey19ZuAZwEL-12" value="&lt;h3 style=&quot;&quot;&gt;&lt;strong&gt;C with classes Language&lt;/strong&gt;&lt;/h3&gt;&lt;h3 style=&quot;&quot;&gt;&lt;span style=&quot;background-color: transparent; color: light-dark(rgb(0, 0, 0), rgb(255, 255, 255)); font-size: 12px; font-weight: normal;&quot;&gt;1979, Bjarne Stroustrup&lt;/span&gt;&lt;span style=&quot;background-color: transparent; color: light-dark(rgb(0, 0, 0), rgb(255, 255, 255)); font-size: 12px; font-weight: normal;&quot;&gt;, high level programing language&lt;/span&gt;&lt;span style=&quot;background-color: transparent; color: light-dark(rgb(0, 0, 0), rgb(255, 255, 255)); font-size: 12px; font-weight: normal;&quot;&gt;.&lt;/span&gt;&lt;/h3&gt;&lt;h3 style=&quot;&quot;&gt;&lt;span style=&quot;font-size: 12px;&quot;&gt;Web Crawlers, Compilers, OS&lt;/span&gt;&lt;/h3&gt;" style="rounded=0;whiteSpace=wrap;html=1;align=left;" vertex="1" parent="1">
          <mxGeometry x="120" y="760" width="480" height="120" as="geometry" />
        </mxCell>
        <mxCell id="HWHILHlx0ey19ZuAZwEL-14" value="&lt;h3 style=&quot;&quot;&gt;&lt;strong&gt;C++ Language (officially)&lt;/strong&gt;&lt;/h3&gt;&lt;h3 style=&quot;&quot;&gt;&lt;span style=&quot;background-color: transparent; color: light-dark(rgb(0, 0, 0), rgb(255, 255, 255)); font-size: 12px; font-weight: normal;&quot;&gt;1983 , Bjarne Stroustrup&lt;/span&gt;&lt;span style=&quot;background-color: transparent; color: light-dark(rgb(0, 0, 0), rgb(255, 255, 255)); font-size: 12px; font-weight: normal;&quot;&gt;, high level programing language&lt;/span&gt;&lt;span style=&quot;background-color: transparent; color: light-dark(rgb(0, 0, 0), rgb(255, 255, 255)); font-size: 12px; font-weight: normal;&quot;&gt;.&lt;/span&gt;&lt;/h3&gt;&lt;h3 style=&quot;&quot;&gt;&lt;span style=&quot;font-size: 12px;&quot;&gt;Web Crawlers, Compilers, OS&lt;/span&gt;&lt;/h3&gt;" style="rounded=0;whiteSpace=wrap;html=1;align=left;" vertex="1" parent="1">
          <mxGeometry x="120" y="920" width="480" height="120" as="geometry" />
        </mxCell>
        <mxCell id="HWHILHlx0ey19ZuAZwEL-16" value="" style="shape=image;verticalLabelPosition=bottom;labelBackgroundColor=default;verticalAlign=top;aspect=fixed;imageAspect=0;image=data:image/png,iVBORw0KGgoAAAANSUhEUgAAAHUAAABpCAYAAAAEEGxcAAAAAXNSR0IArs4c6QAAAARnQU1BAACxjwv8YQUAAAAJcEhZcwAADsMAAA7DAcdvqGQAAAiySURBVHhe7Z1dTBtXGobf7p2T5caACd6mpFGNtSHBgaawQREVURUEKK5wWxSFm02RAlGaKEpQZEiruEqIrQiyLCkb7JSy0gqECMUbIkBEUa2wyJYtyl/aC8Nq1Sqq+YnwTRRGudpeFI9mjo2Zscdgn55HykXmjOfvmW/OmHnn+I3Xr1//Hwyq+AM5gZH6MKkUwqRSCJNKIUwqhTCpFPKGlK80bo8XAw+csLZch0qlErX5FxZxufEaXr58yU/TarPRebcVAHD+QiMCgSXBJ37DdsuCkqPF5GQRVlsb5p79iM67rUhXqwEAff2DGH40KpqWCNaCwbBtLywwRDwGyYYiUlvb7sJmtUQ9yH39g/D5piIuYzM4jkPTtS+RpclEk/kK/AuLuG65hS8tzdDn6sjZFWUtGMSNm7fxxedXo+5XMpLUl1+VSoVzDXWYm/8Bs3PPcK+rG0ZjVcKFpjpJLRUA9Lk6GPIP4uKlq1heWUX5iePkLAwCRaQGlpZR/VEtSssqUFpWgUuXzeA4jpwtZkwmI9LS0mA8WSn5UrgWDOJU7af8NsWybcsrq/x+VRlr4F9YJGdJSpK6T4WgX52emUNaWhrutLbsyOXX7fGixdq2Y+uXgyKVmkicD0ewvLKK3n99Dd07+3Gvq1tSpSlRqUL0eh202XvIyUlJUktdCwYx/GgUxpOV2Pvmn3CuoQ6L//0fZmbnyVnDSFer0d/7DSZcY6J/7Xdssq4UIRyOHuzevQtv7X2TbEo6JEudnplDeaUp4hlP9qmnaj/FWjBILkIWHMfhxs3b2JOlQfWHVcDGTVPt6Rq0WNsS3r+5PV5RhQOI+YTYbiT1qYzUQnKlMlIHJpVCmFQKYVIphEmlECaVQphUCmFSKYRJpRAmlUKYVAphUimESaUQJpVCokrlOA6XLpvh9njJJiDCM0fhc9ZIbVKftfb1D0acz2prizm5IJdQciLS+shURV//oKh9p4kqVQqFBQaMjw6FJQtKjhZjwjWG8dEhFBYY0FBfhwnXGPp7v4maZQKA6g+rsCdLg/HH3/HT/AuLmJv/Aeca6hL+oNrt8eL8hUb8pfg9sol/eG88WYkJ1xju2zvQ2zew6Ym/E8QtNRGoVCrUfFKN4UejfLUODQ3DkH8w4aGvtWAQT59OoufrTmg0mWQzZmbnRVFVfa4Ox0qK8fTpJDnrjpGUUgGg4HA+X62hKjWZjORsipOuVqPJfGXTq8FPPz+H4VCe6DWQsfEnWFl9EXaZ3inilkpml6y2NnKWmAil812uCdzr6pZVpf6FRVQZa8L6c6W2DYL7CZ9vCh3tt/Hq1TrWaZFK9qlN5ivkLDGjz9Vh/9s5WF5ZxdmzZ8jmTdHn6jAyPBCWJFRq28bGn2DggRPjo0Nov2PD+vo6du/ehV2bVPd2E7fURJOzLwd7sjSyDlgiK3Vfzl5otdn44vOr/CX6p5+fI0uTuekle7tJeqmxkMhK1et/6wIcjh5AkE1+//1jxJw7hySp5maL6IwX3r6TfWqk73WpROi7eWlZBbrs3fz+hfYrXa1G591WzD37EaVlFaj+qBYXP6vf8l3b7YTlfilEUqUyUgsmlUKYVAphUimESaUQJpVCmFQKYVIphEmlECaVQphUCmFSKYRJpRAmlUKiSt2p3K/wmabcz8ZLX/9g2DiEbo83bJrShLLEZIY4lOLYzEEkoj5P5TbGBaz5pDriQ+BoYxaGCC2jqOgITp/6mGyWjNXWhpx9OXEtQypWWxtWVl/A2nId6xyH8xcat+VBuNvjRcdXdtEA1aEIjpzURtRKTRb8C4t4tb7Oj3yWaM6ePYPllVXMzM7D4eiB4VCebKFuj1f2lUUYi4UgwC43Gpv0UjmOw72ublRWnNj0aqA06Wo1jCcrYW62YNLtlX1QY4UMsccaYI9bKplRUiKxJ8T5cARZmkxZlaJEmrD8xHFotdk4VlIs+6DGQ8nRYhgO5eFv7Z0xVSmUkJrI3O9aMAiXa0L2jimRJnQ4ehAILGFs/InkmxThi1PmZgsCgSV+IE45J5TJZMTM7LOYh5aPW2oicTh6UFZWKnvH4q1Ut8eLSbcX9+0dqCj/AB1f2SX1jcLhaG23LNBqs+H8tlf2CZWRkY60tD9iX85eskkSSSs1npujeCqV4zgMPHDyl93QmwHCN/CSHUlStzv3G7o5mviPW7Rsct2JoP3v/xC95pGuVuPiZ/XosncnfN1KEfV7KiM1kVSpjNSCSaUQJpVCmFQKYVIphEmlECaVQphUCmFSKYRJpRAmlUKYVAphUimESaWQqI/e+voH0WXv5v9P/nw02a7VZvPxxlA0dHpmjm8HgIb6Opw+9TGstjZMur388oRxVL1eh/MXGhEILIk+CwC2W5Yt80pujxfmZgs5mV837WxZqcIM0rWmK7jceE0Uaq4o/4BPFhgO5eHGzdvgOA4qlQrtd2xh4/0KD2p2dha+nxZLBxELaaivE23DVkKxEd4SJh7u2zugz9Xxw7nSzpZShRQczofunf0RRWBjHEE5HMw7AJ9vSlL+Jx6GhoZx5q+1Ww4eTQuypEaD4zj4fFOyBl7UaDJRVHQEfn/iXmdwe7xYWX2BgsP5ZBO1yJLqfDgiGpUaG8OklpZVoLzShKKiI5LCXULeLTRgdOxxQsbKXQsG0fPP3m0Zoj2Z2FKqMFg2/GhU9J4HBH1qQ30dfL4p2aEzfa4OGRkZeP78F7IpbsYff4f9b+fIjpimOltKFd6kRPtRg/ITx/n3T+RS9F4hBr/9Nzk5LvwLi3C5JmQN/kwLW0qVSuj9k4EHTtnVGurvlpdXyKaY+b3dHAlRTCoE1ep8OMK/Y1peacL0zBy67N0o3eQ3XFQqFQ4c+DMCS8tkU0y4PV6MjT8JyysrkUlOBaL+8YGRmihaqYzkgEmlECaVQphUCmFSKYRJpRAmlUKYVAphUimESaUQJpVCmFQKYVIphEmlECaVQphUCvkVtKeEYbiNMUwAAAAASUVORK5CYII=;" vertex="1" parent="1">
          <mxGeometry x="661.5" y="160" width="117" height="105" as="geometry" />
        </mxCell>
        <mxCell id="HWHILHlx0ey19ZuAZwEL-17" value="" style="shape=image;verticalLabelPosition=bottom;labelBackgroundColor=default;verticalAlign=top;aspect=fixed;imageAspect=0;image=data:image/png,iVBORw0KGgoAAAANSUhEUgAAAPYAAACiCAYAAAByDTApAAAAAXNSR0IArs4c6QAAAARnQU1BAACxjwv8YQUAAAAJcEhZcwAADsMAAA7DAcdvqGQAABgMSURBVHhe7d17WFR1/gfwtwocZoYBYbiMXGQ0EJVVEw1+qRGSRoqR+risuHTbttJaldUs7KKrVrilrZctL9VmyYqxpsWGLsoCa4oPumLiko6QQgOIjIAzAzNzAPX3B8yROdzmggrHz+t5fB75fs4chsv7fC8zfM8AlmVvgRAiKAP5DYSQ/o+CTYgAUbAJESAKNiECRMEmRIAo2IQIEAWbEAGiYBMiQBRsQgSIgk2IAFGwCREgCjYhAkTBJkSA7niwyzYXI8cvDeqDKn7JLsWv5iPHLw05fmko21zML1ul+NV8u89xL+wuzUZMVjLqWR3XdllXjQkZr3Rot0c9q0NMVjJ2l2bzS6SPsjvY8/c24etzN1ChuYWwv7I4Xn6Tf8gdEfrxJERXJsBndiC/1K/lVZ/FlMwkXNZV80uEWMzuYEuZAfB3HcD9P3Bw6/9NFEtDEV2ZAK+ZAWbt94sFeSlYVfglv/mOGSaV43TcJ8iKWQ93Rsov3zGrCr+8q18n6d4AWzda+PrcDfx+fzO/GQCwbIoD3gxtxumnjsBY0QgHVyc8uCcKruNl3DGmoW/jRQ2uflsOABjz6RSzC4D6oArnXjzGfTz89bFQLA3lPkbbMFoyws2sXX1QBdWnSozd/SgcXBzBVhtw9rd5GLkhHK7jZWhpaEbR0//B9ZNq7jHtz81WG7jnzq9Zqp7VYX7eewCAvVFvcSEztSs1FQAAmbMr9k1dBQCYl7sWtUZtu7MAIgcG2yYtQZR8HNAWoK9Kj3D1EDd/7vzta5O8Q7EnaiV3HNpGA4vyt8DQwnZ5TGdMz/kx3zB8fTkPtUYt97yHSeVA2xRgXu5ahLgGWHROcmfZ3GP/ZswgnE9iEOY7EOeTGHw21xFhvgNR8QaDNY85gJGLMKkgDpNPz4azr5j/cADApQ+KIBnhhujKBAx/fSxUnyrR0tB6sVAfVOH88pOY+P3jiK5MQHRlgtXh6oryjVNgfMXcedsP51samlG86Dh8FzyA6MoETD49G1V7frZqjeCyrhrTst6AjHHr0HP+pXg/ZIwbyuJTURafitNxn2CYVM71tLsiV8Bf4oncGRtQFp+K83M/50K9uzQbmRUFXG1d2HPtPiuwNuxZlMWn4pmg6WbtaHtOy0/uwJtjE1AWn4rcGRug1Kqs6mW/KMnCxvCXceapbfBkXPFFSRZXGyaVIzvmz6hlNb06vye2sTnYfD/V3MIQKeDmbD4U747P7EAurB6RcrRom3GjoQUtDc1QfarE0IUjzXr53qA9U4vGCxoEvTOeXwIA6Eu0GOTiCP8XRgAAGLkIvgseQE2mZcHOqz6LmUfeQqx/RJc9l1KrsnoOXc/qkPpzNpJGz+V6SWt8UZIFT8YVswIigLYgJo2eiwL1eYtD+ObYBETJx8GdkSLCaxRKtVVmdXdGiqyY9ZAxbpiW9YbVXyPpPTYHe/7eJozaxKKw6iZGbWLx0bEWZCpvIvgjIyo0No3uOTcaWmCs0kMS7Mov3XHsFT1qc6pwNGQft+p+6YMi/mFdyqn6kRvqdmZt2LMIcQ3A1EOvQZGeaFWPaS8Z43bX5t21Rq1Zj07uLpuDvXe+k9nwOzZkIJZNcUDJMmf4u1nea3dmkItDl8P3u2FwuBcilfO4oXp0ZQJCP57EP6xTa8OeRe6MDcisKMCCvBR+GQCwJ2olNxzOrCi4a+GuZTVmvXOJttKsbi/Ty2K1rAZnntqGtWHP8g8hd4nNwTZpP/we7W1foE0cXBzhETUEJWvOgK028MsWMVbpuWF98aLjMFbpAQDMEDFaGpqhLbwGtC3imRbvAMA1zBPGKj0qPr/ItVnL0vnmYCcJPBnzUUmgxAeGG004dvV/Zu3ujBQyxg2HKk4BbUP+94vSzI7pTrTvg/ilUY3vVQVA25w7s6IAiQ9MM1vYi8lKxqj9LyCv+izvDN0zLbB1tq5A7j67gv1TTeuQW2O8hSu83131QRVy/NJwfMK3aLhwHf+ddRhHR30D7Zla8wO7oFgaCt8FD+D4hG87vBGFrTYgPyIDOX5puPptOS59UGRW95oZALeJnjg+4VscDdkH77ih3AiAkYsQvHo8zr14DDl+aWi8qMHw18dyn5eRizDhu+mo2vMz93lteYNN+/nmX4r3A+2Co0hPhCI9EeO/WwQZ42bWs5nmvu8U7oIiPdEsZO9NeB5KrQqK9ERuIUzs4Nzh3F+VHkF+TTEU6YncqCFKPg7bJi3B+0VpUKQnYuqh1xDrH4Gng6Zxn9sefynejwivUV2uK5C7y+aXuwghfZddPTYhpG+iYBMiQBRsQgSIgk2IAFGwCREgCjYhAkTBJkSAKNiECBAFmxABomATIkAUbEIEiIJNiABRsAkRIAo2IQJEwSZEgCjYhAgQBZsQAaJgEyJAFGxCBIiCTYgAUbAJESAKNiECRMEmRIAo2IQIEAWbEAGiYBMiQBRsQgSIgk2IAFGwCREgCjYhAkTBJkSAKNiECBAFmxABomATIkAUbEIEiIJNiABRsAkRILuCXZTxNtIXMyg/lcYv9WnHy29iSAqL+Xub+CWL5Z8oQNKyZBgMBq5NebEEb69aZ9ZmLYPBgKRlyYicOgN79u7jlwmxiF3BtsfxnfNQlPE2v7lfUF4swZat27Fo4QsQiURce8iIYEjEYmza/InZ8dY48F0mACDr4H4smD+PXybEInYFe2zcu4jfyiLwoQR+qU+bHDgQV1Yy2DvfiV/qkcFgwLbtnyMuLhYhI4L5ZSQtfQVXa9TIP1HAL1mkvKwc4eETzS4YhFhrAMuyt/iNPdHXq5C98REYNVfgwLjgkYXfwStoClc39cS66guoPPdPAEDEM7sQ+FACijLexoUjH3LHmviNeRKTX+p+6FmhuYXfpjdjhOcA7C26gZcecsB/K2/i4rVb2LfAEZMDB0JjvIW43c0orLoJAAjzHYiMpx3h5jwAADB/bxMyla21ZVMcsOYxB+78X5+7gQPFNxDiNRAfHWvp9Jj8EwVI/8cBpLy3usvwWXJMV1LWb0SgIpB6a2IXm3pssXsA4t4tw6y1pRC5+fLLAIALRz6EVD4S8VtZjJy+AiV5W9Fs0HC9vN+YJzFy+grEb2URv5XtMdQmVbqb0LG38NlcR+w81YJX/m8QHh02AIdLW8P6t9M38P7jDtCtdkbFGwwA4KPjN7jH753vBN1qZ8SGdP6lZypvQqm+Cd1qZ3w21xF7zragQnP72vef/xzrsUcNCQlGY6Mev6gq+CVC7orOf7t7gd+YJzE27l0AwJDRT6DZqEOzUcs/zGpSpwFY/HBrDxrmOxBPBJt/CX+c7IDJga1tbs4DEDV8IJTq1tBbIsx3IHbMdgQATB46EFKnASi/3hpsg8GAqzVqKAIDeI8yJxaJIJGIUVtbxy91y9LzE9KTOxbse8W04i1dY4R0jZEbUvcGvcGA6qs1/OYORCIRfLy9UFau4pe6lLJ+I+b95lksWvgCJj0cwS8TYhVBBbtCcwvPfdOEl8IHQbfaGbrVzlg25fb82F5ikQhyH29+cwe29Lwrk5dj39dfYtv2z21eeCPE5J4FWyofiRplDpoNGn7JbqO9WxfKjpffxM6Tt+fX9rK0J9YbDGhs1EMm8+CXumXp+QnpiU3BLj+VhvTFDL5fFQRdzUXkbn4M+1+TQV16jH9ol0ZNXwEAOPC6N9IXMzi+0/5VYH+3AVgwzgG/398M6RojnvumCbNG3v4SKzS3EPxR6xA9U3kTHx1rgXSNEav/bflw/dFHpyDjnwdRW9f1/FmpLIFEIsbQAH9+iZC7wqaXu+5nBoMBK99ag/DwiZ2+JGWqx/96jk1zZXq5i/QGm3rs+5lIJMKihS8gIyMTyosl/DI2bf4EPt5eNoUaAAIVgSgvK+c3E2IVCrYNQkYEY8nihdi2/fMO7xVv1OuRtPQVs+OtMeepWFytUdN7xYldaChOiABRj02IAFGwCREgCjYhAkTBJkSAKNiECBAFmxABomATIkAUbEIEiIJNiABRsAkRoPsy2A2XsnB+ozvK0p7gl3rFlcNLUbyeQfF6Bsot/miqM/9jEdPe4e03VLisq8aEjFewqvBL5FWfxaj9L2B3abbZ42xlOp8iPRETMl7BZV21WX1V4ZdQpCdCkZ6IBXkpZrX+bEFeCvd1rSr8kl82k1d9FlMykzr93sRkJaOe1Zm1L8hL6fGcXenpZ11bV4ekZcnd/mlwT+7LYNujLO0JXDm8lN/MabiUBe2FbxAYn4HQZBYhSyrg5GG+TbG1fwG2uzS7QyA7a+tKlHwczs/9HLsiV0A0qOOWy2vDnkVZfCqeCZrOL90x9awOMVnJHS5e9awOc/79J+RVnzVrt8WeqJUoi0/FJO9QfsluL42ciXP1lzsEvjfIPDwQHj4R6979wOabT9yXwXYZHoNRy+uhSPgXv2S3putlGCTxhvOQifwS0LY18dlzxXjppefN2gc7SeDJuCLY1Q+BEh/IGCkCXLzMjhGiEm0lv6lfGOc+HPoWI75XWb+NlSU/6wXz58HH24u7gYS1+l2wrxxeiiuHl6Is7QluuFtXuIOrm3rU9sNhft3Uzu956wp3cI/nH2NqayzPRV3hdq7OH86z134y+7g9g8GA9H8cwJI/vAyZh/m2Se6MFFkx6/F00DQMk8pxLHYTouTjzI7pzu7SbG7YOWr/C73S45m0H8r31nDdnZFCxrjxm3G9qRFq43Xu4/bTBEV6olkPv7s0GzFZycj45QT3/Kx5bu2/Z88d/RCGG53f8knGuMGdkZq1uTNSJD4wDak/Z3fotS/rqrnRiOl5tR/OW/qznjs3Drm5RzsdkisvliA2Lr7LP+3td8EGgLrC7WBkIQhNZjHk8S1QH1tnNo+tK9wOtlaJ0GQWHmELUXdmB1oMtQAARcK/EJrMQhI4td0Zb2ssz+UeO+TxLdBe+AZNdSUY8vhm7nEeYQsRmswiNJnlen3TBaOucDtYdTGUm307XDx+UVWgsVGPkJCOdxCxR171WWz6aT92Ra5AWXwq3hybgOUnd1g0TO/JZV01lp/cgTfHJqAsPhW5MzZAqVXZPL/sDH/4LXFwRqDEB7tLs5FZUYDcGRtQFp+KdWHP4f2iNLOLllJTgTU/7sbB6e9hV+QKKLUqiy5q/O9ZV9OUYFc/fhNnis+v0NhixNn6S/wSrrFabPppPw5Ofw+5MzbgGqu1uncfGuAPiUQMpbLjhh496ZfBlgROxZDHNwMAXBTRGOAoRtP1299cxisU/rP/DgCQBs3EzaYG3DR0vOp1pv1jOzt3V0wXDI+whWC8QhGytKrt4tD6PAGgtrYOEokY4m5uNtCVWqMWUw+9xvUw7xTu4mo5VT8i1j+Cu+rPCoiAJ+OKY1f/1+4MtvmiJAuejCtmBbSuBwyTypE0ei4K1Oc79FTWCnL1Ram2CmfrL+GCRoWcqh+5mrapEak/ZyPWPwLDpHIAwNNB0zDeI8jsOJEDg43hL2OYVI5x7sPhybhC1aDm6l3ZeeGg2ffMFsOkckQPGY+dFw7ySxANcuKe1zCpHCGuAVZPO7rb3DJkRDAyM9K73EKrXwab71azHk3Xy7iPJQGPwEEkA9rm0yMWXeywgHUvdPYDspTM2ZXruUy9l0mptgpflR7hQj/+u0VQanrvLiSdDUV7k6pBjeeDY1CqrcK5+ssQOzjDzUkC9NBjAsBQiRfGuQ8HeEPcuyXa90H80ni1V0ZHnbF1qyxBBHuAoxhOgxX85j7Hmn3GrfVM0HQu9KZ/vfULXstqzHpna3uerphCe6auFL9WRMLF0RkXNOYXv/afq57VoZbt/e2qu/N00DTsiVrJb+ZEycdhqMQHX5Rk8Uu9orysHIGKQH5zj/p9sKuyFmOgk0uXq9C9jZGFoFH1Azdnt4ZM5oHGRj30Nr6E0ZUZ/g/hH2VHLZpbWqu1R1Jz88PLumpkVhQg8YFpXC9ueunKlkU7pVaFy7pqDHaSQC7ywIma1sVHNycJIrxGIbOigOsNv1cV4BqrxfPBMbyzWC/I1ZebTpjWETpbPFuQl9Ljy4oz/B/qlakJX3c3njAtnqWs38gvAf012I3ludyqdIu+BooFR7ihd3ea6kqg3OLfYXWbvzreHa9HVgEAtzjGXxXvjmkxJOtwDr9kl6eDpuHNsQl47uiH3HC8/S+jaWX5uaMfoqLxGqYeeo2rm0KpSE/EV6VHkF9TbLa6HCUfh22TluD9ojQo0hMx9dBriPWPMBsNuDNSRHiNgqGFtWh+216tUYsx7sPgzkgR7fsgLmhUEA1i4M5IsTbsWcT6R3BrC+8XpXHz1p6Y3gSiSE9Efk0xN1UxLfr9MXQuAGD8d4sw88hbSBo9F56MK+8sljGtP1i7ONaT7hZbPT1lkEpdcPZccaer5v1uM8Mrh5eCrVXekdeg74b8EwXY8tcd+Hjrhg4vefVnu0uz8X5RGrZNWmLXglR/tbs0G6k/Z2Nv1Fu9th7R3R7zpv3rfby9sDJ5Ob/cP3vs/mzSwxEYNyYUO3d+wS/1S6ae8X4ONdpGTVkx63st1Hv27sPVGjXmPBXLL2HP3n2ImTm3y1CDeux7w967hRBhq62rw7p3P8A7b79u86iu3wWbENIzGooTIkAUbEIEiIJNiABRsAkRIAo2IQJEwSZEgCjYhAgQBZsQAaJgEyJAFGxCBIiCTYgA3XfBbmloRuGcbKgP2r5N0Z1SlPE20hczSF/MIONtBfT1fe85kv7hvgt2X1V+Kg1lJ1Mxa20p4reykA2diPzPfoNmw93dCogIQ78LtvqgCoVzslH/w1UcHfUNcvzSUPxqPlc39cg5fmkdasWv5uNoyD5cP6nGuRePcceUbS42O3dLQzMAgK024ORjh6A907oNUvGr+SjbXIyyzcXcY009P1tt4EYCpufV/lzdaTZoUJK3FYrwRIjdW7fBGRGdBP31SlyvPMcdV1tXh/m//V2X2+EQYtLvgg0A10+qcf61AkTkzsTE7x/H9VNqLnzKN06B8RUjujIBkcp5YKv0XHBDP56ESOU8DA73wphPpyC6MgHRlQlQLLX8FjCXPihC40UNoisTMPz1sVB9quTCa6zSo2TNGUTkzsTk07NhrNKj/mjXe2WZNBu1aDbqMGR06zZL+noVTuxKhFFbTcNxYpN+GWwHVyf8avtkMHIRxMGuEPlJwF7Rg602gK3SI+id8a3HuTgi4MUQ1OVdsajntMTgcC+E/PkhAIBHpBwt2mbcaGgB2j6f6XkxchHcJnqisUTLO0PXWoxaZH84Cd+vCsK4p1LgN+ZJaK60XpTQdk+nvX//W5e7ZhBi0i+D7TLSDeLg1o3nHFwcEXZgGrxmBoC9okfDBQ2OT/iWGyqfe/EY/+F28YgaAgcXRwCA63gZwv89A4zc+hsA8DWzOvywYw6CoxYjfisL31/NhEFTBbchlo8mCDHpl8HujrOvGJNPz+aG2dGVCQg7MI0LY1/k6OwKsZsvRk5fgcCHEoB2w3PTnJsQawgq2OJgVzi4OqJ03Rl+iePg4gjGV4yazM7nrsYqPW40tKCloRnFi47DWKXnH9LrHEVu8A6JRunRbVCXto4wSn/YAUdnKQb7jeGOMy2eJS1Ltvn2quT+IKhgO7g4YuzuR8FW6bmhePtVb5Ogd8ZD899rHepeMwPgNtETxyd8i6Mh++AdNxTOvmKzx94pY+PeRVDkIuRufgzpixnUKHPw6B8OwVF0+46UYpEIch9vlJRewi+q3ruFDxEe2sywn0lZvxFXa9RIeW81RDbc3I/cHwTVYwtZ/okCRE6dQaEmFqEemxABoh6bEAGiYBMiQBRsQgSIgk2IAFGwCREgCjYhAkTBJkSAKNiECBAFmxABomATIkAUbEIEyKZgm/4uOHLqDOSfKOCXCSH3mF1/BKK8WIING7difcqfIPPw4JcJIfeITT22ydAAf/j4eOHatdYdQgkhfYNdwSaE9E0UbEIEyK5gi0QiSMRinC48yy8RQu4hu4INACuTl6O8rByxcfFQXizhlwkh94Bdq+IGgwEr31qD+F/PwaSHI/hlQsg9YneP7eIigUxGL3UR0pfYHWxCSN9DwSZEgOwK9i+qCly9qoanp4xfIoTcQzYF2/Re8RdfXoKpUyPp7aSE9DF2rYoTQvomm3psQkjfRsEmRIAo2IQIEAWbEAGiYBMiQBRsQgSIgk2IAFGwCREgCjYhAkTBJkSAKNiECBAFmxABomATIkAUbEIE6P8BcLruCJSFs6kAAAAASUVORK5CYII=;" vertex="1" parent="1">
          <mxGeometry x="640" y="561.46" width="180" height="118.54" as="geometry" />
        </mxCell>
        <mxCell id="HWHILHlx0ey19ZuAZwEL-18" value="" style="shape=image;verticalLabelPosition=bottom;labelBackgroundColor=default;verticalAlign=top;aspect=fixed;imageAspect=0;image=data:image/png,iVBORw0KGgoAAAANSUhEUgAAAQkAAACYCAYAAAD3JRw2AAAAAXNSR0IArs4c6QAAAARnQU1BAACxjwv8YQUAAAAJcEhZcwAADsMAAA7DAcdvqGQAABfDSURBVHhe7d1/VFRl/gfwtwYOAwwkCIyAggaimbqiwYYuAWkskpSuS0BY9nVNrdXc7IdkamYGW+lqbqlZu7q6aqxpUcBxMyFSPGhC4LI6wirEDwcQEAYYJlC/f+BcmctwHWA0wPfrHM/B+3nuc2c43Pd9nntn7h2g0+mug4ioEwPFC4iI2mNIEJEkhgQRSWJIEJEkhgQRSWJIEJEkhgQRSWJIEJGkOxoSRZvzcdRtH6pSSsSlHsl/IRNH3fbhqNs+FG3OF5e7JP+FzB730RUXNWpMSnoeoYdXoFanEZeJfnFmDYmo/T/jszNXUVp3Hb5/1eF48TVxk9ti7IcBCCmLhssTHuLSXS0mPR6rs3eJFxN1iVlDQiEbAHe7AcLPHve2/azn+eJYhJRFw2nGMIPldwtjO+0IhRKnIz7C4dAEDJYpDGr9Ua1Og1nfvol0da64RL3UAHN8d+OzM1fxh4Mt4sUAgJemWuD1sS04/fg3aC5thIXdIPxqbxDsJjoKbfTD+8bzdaj4ohgAMG7HVIMwqUopwZkFx4T/j3x1PDxfHCv8HzemCjaj7A2WV6WUoGSHCuN3PwwLW0vo1FrkPpWO0e/7wW6iI1obWpA39ztcOVklrNO+b51aK7x2cc1UtToNotLXAwD2B60UwmB19i78o/AbAECA81jsDYozWK99HQDW+c7DXK9pt6yLl+vpt6F/PbH3TUNq6SlkVuZDbiHD1oClCFJOAER9O1rZ4UDwaoxQKIF270dVVwoA8LF3F97X6uxdUGtrcLq6AADw5IggfHQ2yeD97S48glXZOzu8H+qdzDKSeHLcPTi7TAZf14E4u0yGT2Zbwtd1IEpfk2HtIxaQKeUIyIrAlNNPwMrVWrw6AODCu3mwGWWPkLJojHx1PEp2qNDa0BY8VSklOLv8JCZ//ShCyqIRUhbd5R21M6rXTkHmai30237K0trQgvzFx+Eacx9CyqIx5fQTKN/7vy6dU7moUWPa4dfgKLPvMFp4y/cZFEXuwdNe0w3WwY0dKbk0C2lh76Mocg/W+c7DO3n7hCNwujoXRy/lCPWiyD3CDqfvN8B5LJ72mi7UxSG0KnsnvOxcURS5BxMdvPDxuRSj2w5398eizE3COZMd51MRNyEaRZF7kPP4VgDAX/IPCv1+X/EfrPnVXAyR2eHb8mx88OsX8FNjBS5q1ACAuV7TsDPwFbyTt6/DyIp6H7OEhNh/K69jqAKwtzKcbkhxecJD2PEdApVorW/B1YZWtDa0oGSHCsMXjTYYfZhDfU41Gs/VwWvVRHEJANBUUI97bC3hPn8UAECmlMM15j5UJpsWEunqXMz4ZiXC3f077KBSanUa7PnfEYS7+wtH77le0zDRwQtHy38U2lXrNDhW8Z92a3ZNgPNYvOX7DAAgzP1BVOvqUKvTILX0FJbdP1vY9rPeoWhsbUZu7QUAwKvjIoURx2CZAv5OY1BYXy70O9HBC79xeQAAEHvfNNgN6nhgCFJOQMr09UguzUJMery4TL2IWUIiav/PGLNJh+zyaxizSYeNx1qRrLoG743NKK3r2WzmakMrmsubYONtJy7ddrpLTag+Wo4MnwPC1ZML7+aJm3XqaPmP0LbqxItN5m3nJl4kCFJOwOvjo7Eqeyc8E2O7dXUkzP1B4ee5XtNwODQBAFCtqxP69UyMRXDqy6hu13e6OhdjDs4X6samNl2RU1PIcxS9mFlCYn/UIIMpRrjPQLw01QIFL1nB3d700YQx99hadDpFuRPu9XNCoGqOMB0JKYvG2A8DxM2Mesv3GaSFvd/to2VBfZnwc61Og2pdnUF9rtc0YSrhKLNHVPr6LgdFZ9b5zhP6Lorcg7OzP0WQcgIuatRYfnI7fu8ZKNSMTZdupf0oS9839U5mCQm99lOM+517Fg56FraWcAgaioK1OdCpteKySZrLm4SpS/7i42gubwIAyIZao7WhBfXZl4EbJ1D1J04BwM53CJrLm1D66XlhWVeNUChxJPTPqNbVmXy01w/hk0uzhHn81yVZuKyrx7PeoeLmAAAvO1fxInjZuSKr6qxJ29TTb3vTfw8K2zZGP8pJV+fiX0UZ4rKkdHUuFmd+gNfHRwvTHeq9zBYS/61sm1bUNV/HJdHfZFVKCY667cPxSV+g4dwV/PDYv5Ex5nPU51QbNuyE54tj4RpzH45P+qLDh6Z0ai0y/ZNw1G0fKr4oxoV38wzqTjOGwX7yEByf9AUyfA7AOWK4MDKRKeXwXjMRZxYcw1G3fWg8X4eRr44XtitTyjHpy+ko3/s/Ybvd+TDYYJkCh0MT4CizF07w1eo0CD28QhiuZ1bmwzMxVhhxvOX7DMLd/RGc+jI8E2PxTt4+bPBbKJwnWJ29SxjueybGIrk0C9sClhmcGP3T2NkAgIlfLjbo+1bE224/nRmhUCLc3V+Yjiw/uV04/2CKWp0Gm/MPYWvAUl7Z6CPMcgmUiPovs40kiKh/YkgQkSSGBBFJYkgQkSSGBBFJYkgQkSSGBBFJYkgQkSSGBBFJYkgQkSSGBBFJYkgQkSSGBBFJYkgQkSSGBBFJYkgQkSSGBBFJYkgQkSSGBBFJYkgQkSSGBBFJYkgQkSSGBBFJYkgQkSSGBBFJYkgQkSSGBBFJYkgQkSSGBBFJYkgQkSSGBBFJYkgQkSSGBBFJYkgQkSSGBBFJYkgQkSSGBBFJMltI5CW9gcQlMhSf2icu9WrHi69haLwOUft/FpdMlnkiC8teWgGtVissU50vwBur1xks6yqtVotlL61AYHAY9u4/IC4T3RFmC4meOP7xHOQlvSFe3Ceozhfggy3bsHjRfMjlcmG5zyhv2FhbY9Pmjwzad8WhL5MBAIdTDiImao64THRHmC0kxke8jcgtOng8GC0u9WpTPAbiUpwM+6MGiUu3pNVqsXXbp4iICIfPKG9xGctefB4VlVXIPJElLpmkuKgYfn6TDcKH6E4boNPprosXdkVTbQmObPgNmusuwUJmi98s+hJOXlOFun6EoFGfQ9mZrwAA/k/vhMeD0chLegPnvnlPaKvnNm4mpjwnPbwurbuOpxJbMGrIAOzPu4rnHrTAD2XXcP7ydRyIscQUj4Goa76OiN0tyC6/BgDwdR2IpLmWsLcaAACI2v8zklVttZemWmDtIxZC/5+duYpD+Vfh4zQQG4+1Gm2TeSILif86hPj1azrdkU1p05n4hA3w8PTgKIJ+UT0eSVgPHoaIt4vw2FuFkNu7issAgHPfvAeFcjQit+gwevorKEjfghZtnTD6cBs3E6Onv4LILTpEbtHdMiD0yjXXoNFdxyezLfHxqVY8/+t78PCIAfh3YduO/7fTV/HOoxbQrLFC6WsyAMDG41eF9fdHDYJmjRXCfYz/GpJV16CqugbNGit8MtsSe3NbUVp3M1O/++7YLY/0Pj7eaGxswk8lpeISUZ9gfO8wM7dxMzE+4m0AwND7f4uWZg1amuvFzbpMMWgAljzUdmT3dR2I33obvp0/TbHAFI+2ZfZWAxA0ciBUVW0BYgpf14HY/oQlAGDK8IFQDBqA4ittIaHValFRWQVPj2GitQxZy+WwsbFGdXWNuCTJ1P6Jbrc7EhK/FP2VC8XaZijWNgvTBnNo0mqhrqgUL+5ALpfDxdkJRcUl4lKn4hM2YM6Tz2DxovkIeMhfXCa6o/ptSJTWXce8z3/Gc373QLPGCpo1Vnhp6s3zCT1lLZdD6eIsXtxBd0YEcSuW48Bnu7B126fdPulJZC69IiQUytGoVB1Fi7ZOXOqx+53bTlIeL76Gj0/ePB/RU6aOEJq0WjQ2NsHR0UFckmRq/0S3W49DovjUPiQukeHr1V7QVJ5H2uZHcPBlR1QVHhM37dSY6a8AAA696ozEJTIc/7jnZ/Pd7QcgZoIF/nCwBYq1zZj3+c94bPTNt1tadx3eG9umIcmqa9h4rBWKtc1Y863pU5KHH56KpK9SUF3T+fkGlaoANjbWGD7MXVwi6hN6fAn0bqbVahG3ci38/CYbvUypr0f+fla3zi3wEij1Bj0eSdzN5HI5Fi+aj6SkZKjOF4jL2LT5I7g4O3UrIADAw9MDxUXF4sVEdxRDood8Rnlj6ZJF2Lrt0w7f3WhsasKyF583aN8Vsx4PR0VlFb+7Qb8oTjeISBJHEkQkiSFBRJIYEkQkiSFBRJIYEkQkiSFBRJIYEkQkiSFBRJIYEkQkiSFBRJIYEjfon3HBm7x030WNGpOSnsfq7F1IV+dizMH52F14RNysW/R9eybGYszB+UhX5xrU9dvzTIzFpKTncVGjNqj3Vauzd8EzMRaeibGISY8Xlw3U6jQIPbyiw+98d+ERo7+T3YVHhN/l6uxdRtvgbgiJ+IQN/e7LUX0x0Iz9oRpb1pkRCiVOR3yEtLD34ShTiMsIUk7A2dmfYmfgK5Df0/XHI3RXTHo8VmfvEi9GTHp8h521O97yfQZFkXvwtNd0cemO6fchQdKkQrS6pgYLFi41+jV4Y+4dZIMhMjt427nBw8YFjjIFhtk6iZv1O4X15eJFfcIwWyc4yhTwsHGBt50bhsjscO8gG3Gzvh8Se/cfQGBwmPBPf3TVL089fATbtn8q1OMTNgjrVtfUIOqp/0NgcBhCZ8xGdo7hEBY3+gmPiDS6o+jXb99ne529NlNq7ftUnS/AgoVLUV1Tg/iEDcJrXfH6m8L6ne3ondGPRioqqzDr8XBxGarzBXh63iIEBwcaffCQMYNlChwOTcBcr2kYoVDiWPgmBCkniJt1qv2UwjMx1ugRurvaT0dMGbqbysuu42MkanUaVOtu3opRatu7C48g9PAKJP10QmjTldfW/nc28cvFUNUZf3SDsQAIUk7AsfBNGKFQYq7XNBwOTcBgI6O0Ph0SqvMFSEvLwKHP/4mMtFRkpKUKN3iJiZqDjLRUhIVOw6KF84V63IrlwI2dZN3b7yJi5gxkpKXicMpB+E40/Q/6VvbuP4Ckr1KMvrbME1kGtYR33sT6+A1Gg0gsbsVy4bUmvPOm0HdX7l5VXVODZ//wAlycnbBpY0KH54ZknsjCgoVLsTJueZf67YlanQaLMjch3N0fRZF7kBb2PpJLs8wyZL+oUWP5ye14fXy00LeqvsSsIQTRFMPawgrDbJ1M2raqrhRrf9yNlOnrsTPwFajqSzqcczFG/DvLeXwrfOw73iZxmK0TrC2sxItN1qdDAgDKL6mhUt165xLL+TEPuHFjFykxUXOQnJRo9Gjq6OCA/f/8mxA8etU1NUj6KgVL/7gQjg6GN8DVarVI/NchRMycIdQCHvLH1AB/nM6+9R9GT+lHCBEzZ3R43bgRbuvjN2DH9g+6fUetzlQ31yM49WXhiLoqe6dQy629AGsLK/xp7GzgxjmIcHd/pJaeatdD9/y94DCGyOzw2LC29zNCocSy+2cjq+osanUacfMu8bZzQ7WuDjnVhVDVl3R4vaZsW24hwwa/hRihUGLC4JEYIrNDSUOVQT/GfF3SNvrU/85ulz4dEj6jvLEybrkw7BY/2fuXcvlyNXD9uuQdsrtyi31zOp2dC43G+I6h1Wpx8uQP4sVm42hlh7Sw91EUuQdFkXuwzneeUCtpqEJOdSEmfrlYCJF/FH5jsH5POMrsjQ6lzaWksQrh7n4AgLzai2hqbYaHjQtgwraH2zhhwuCRgGjK1lv06ZDAjaOwfsjt4uyEuJVrf/GgGDLEEQpF538UAAxula9/NsedEBM1B4c+/yeSvkrpcC5FLpdj08YErIxbjgULl97xqyc+9u7IeXyrECJFkXuwNyhO3KxbqnV1BqOGgvoyg3p36YfyP1xWIcR1IrzsXJFVdc6gze3atqmClBNw6JE3JYNKSp8PifY8PD3Ei+Dh6YGTJ3/oEByOjg5QqyuEZ3Ru2vyR2U5cOjo4YOQIjw73vcSNHdHPb7LBrfhzfsyDuqISoY+GCO0qKqug1WpRXVODNWvjoWloMOjDxdkJ331n+mML2nN0cMDfP/kQFZVVRkdfAQ/5Y8f2D7A+vvMrH+Y21eUBXNbV4y/5B8WlHgtx/RV+aqwShucXNWokl2Yh9r5pBjtOTHo8PBNju3we5KfGSmRVnROuEnxbni3UTN12dwyzdcJlXT1yay8AAF448VejJy5XZ+8y+tkSU/XpkBBfIUj6KgWr3njV4ESc/pxD6IzZBlc3fEZ5IyIiHAsWLkVgcBg8PD0QFmq+IV7ciuVwcXYSttv+CkZM1BxEzJyBWb97CoHBYVgfvwFr18QJ5yjav+an5y1C1JO/g8LW1qD/5557Frln8rt9dUM/anBxdsKhL5PFZfiM8sY/dm5DWlqG0YA0txEKJQ4Er0ZyaZYw3Wi/w+4uPALPxFgEp76M0sbLmJfxnsEfvv5DR/My3kNp42UEp74sfAYjSDkBWwOW4p28fUIf4e7+HYb0Ye4PAt040je16uAos8cIhVIIO9y4JGzqto3RfzhKP/XKrMw3uPoRpJyAcHd/zMt4D56JsfCyc0WA81hxNz3GG+ES3ZCuzsXizA/w+vhok3biuwVDgu56tToNotLXQ1VXinW+8xgQIgwJIpLUp89JENHtx5AgIkkMCSKSxJAgIkkMCSKSxJAgIkkMCSKSxJAgIkkMCSKSxJAgIkkMCSKSxJAgIkl3dUi0NrQge9YRVKXcvEtUb5GX9AYSl8iQuESGpDc80VTb+14j3R3u6pDorYpP7UPRyT147K1CRG7RwXH4ZGR+8iRatDdv0050p/TpkKhKKUH2rCOo/b4CGWM+x1G3fch/IVOo60cKR932dajlv5CJDJ8DuHKyCmcWHBPaFG3ON+i7taEFAKBTa3HykVTU51QL6xdtzkfR5nxhXf2IRKfWCiMU/etq35eUFm0dCtK3wNMvFtaD226WOypkGZqulOFK2RmhXWe3ziMytz4dEgBw5WQVzr6cBf+0GZj89aO4cqpK2JFVr52CzNUaIWXRCFTNga68SQiBsR8GIFA1B/f6OWHcjqkIKYtGSFk0PF80/fZfF97NQ+P5OoSURWPkq+NRskMlBEFzeRMK1ubAP20Gppx+As3lTajNuPXj7Fqa69HSrMHQ+38LAGiqLcGJnbForldzykG/iD4fEhZ2g/DAtimQKeWw9raD3M0GuktN0Km10JU3wWvVxLZ2tpYYtsAHNemXTDqim+JePyf4/LntvogOgUq01rfgakMrcGN7+tclU8phP3kIGgva7n1oitbmehx5LwBfr/bChMfj4TZuJuoutQUcJJ75QWRufT4kbEfbw9rbDrixY/oemganGcOgu9SEhnN1OD7pC2E6cGZB9+4u3RmHoKGwsLUEANhNdITft2GQKQ2fhtUdLToNvt8+C95BSxC5RQfXB2ZAW1cO+6Gmj3KIzKXPh4QUK1drTDn9hDCVCCmLhu+hacKO3RtZWtnB2t4Vo6e/Ao8Ho4F2UxD9OQqiO6nfhoS1tx0s7CxRuC5HXBJY2FpC5mqNymTjc/3m8iZcbWhFa0ML8hcfR3N5k7iJ2VnK7eHsE4LCjK2oKmwb+RR+vx2WVgrc6zZOaKc/cWnsuRlE5tRvQ8LC1hLjdz8MXXmTMN1of/VCz2vVRNT9cLlD3WnGMNhPHoLjk75Ahs8BOEcMh5WrtcG6t8v4iLfhFbgYaZsfQeISGSpVR/HwH1NhKbcX2ljL5VC6OKOg8ILwgCGi24F3y+7D4hM2oKKyCvHr13R4MjiRufTbkUR/lnkiC4HBYQwIuiM4kiAiSRxJEJEkhgQRSWJIEJEkhgQRSWJIEJEkhgQRSWJIEJEkhgQRSWJIEJEkhgQRSWJIEJGkHoeE/r4GgcFhyDyRJS4TUR9nti94qc4X4P0NW5AQ/yYcHRzEZSLqo3o8ktAbPswdLi5OuHy57U7VRNQ/mC0kiKh/YkgQkSSzhYRcLoeNtTVOZ+eKS0TUh5ktJAAgbsVyFBcVIzwiEqrzBeIyEfVBZru6odVqEbdyLSJ/PwsBD/mLy0TUR5l1JGFrawNHR17+JOpPzBoSRNT/MCSISJLZQuKnklJUVFRhyBBHcYmI+rAeh4T+uxsLFi5FcHAgP5JN1M+Y7eoGEfVPPR5JEFH/xpAgIkkMCSKSxJAgIkkMCSKSxJAgIkkMCSKSxJAgIkkMCSKS9P/L9wELhkWK5AAAAABJRU5ErkJggg==;" vertex="1" parent="1">
          <mxGeometry x="610" y="760" width="226.66" height="130" as="geometry" />
        </mxCell>
        <mxCell id="HWHILHlx0ey19ZuAZwEL-19" value="" style="shape=image;verticalLabelPosition=bottom;labelBackgroundColor=default;verticalAlign=top;aspect=fixed;imageAspect=0;image=data:image/png,iVBORw0KGgoAAAANSUhEUgAAAakAAAETCAYAAACMfflIAAAAAXNSR0IArs4c6QAAAARnQU1BAACxjwv8YQUAAAAJcEhZcwAADsMAAA7DAcdvqGQAADNQSURBVHhe7d19XFRl3j/wj4rCAIM5I+BjkOs4uaYEuXr7cGO4FYFJYUaG1VquYg+at7gtpJt6m8G24vpQG+ha9gARqWxYsJiJEuKNmxqK6wL+DESRB2cMBxgQlN8fcI4zZwYYEPWAn/fr5esl13XOmRnmnPM51/dcw/TKy8tr0mg0ICIikpve0gYiIiK5YEgREZFsMaSIiEi2GFJERCRbDCkiIpIthhQREckWQ4qIiGSLIUVERLLFkCIiItliSBERkWwxpIiISLZuS0hdOa5D5uhd2D/0C2RPTEF9mVG6CN0iUdEx8PULQFR0jLSLiEj2bktIuXir4Xv6aYz/5jHYOfeVdt8xh4qvY3BUPZRr6sR/q75vlC7WbWUfzkHuyVNI3hWPyIhwaTcRkezdlpCSM6d+TfjnvH4wrHLA6aX2SMht7DFBVVRcAq+xY6BWqaRdRETdQpeFVGN1A44F78P+oV90uKwnXfdY8D40VjeI/ZWpJWLf/qFfoGjTKbP1izadMuuvTC0x67fVsP69EOplhwNnr6OqrgkA8OXJa+Ioa3BUPQ4VXxeXn5N4Fau+bw41YZkvT14T+89XNUGz4cYobdq2q+J2AZitJ11X2O6cxKtW+4mI7gZdElKN1Q048cJB2A9xxPQLz2H6hecwOScI9oMU0kWtKvvqZ4x82xvTLzwH3/zZAIDz2wsAAPVlRvwck4fx3zwmbtvzjTHiuleO61CRcg5Tjj4l9rsGDhf7b8ah4utYsbdBHGltfMIO83ZdxfmqG0GzIasR+ZXXYVjlgGVT7fC3/7smBtHytAaEetnBsMoBhlUOOLigH/o79AJawi8htxGnl9rDsMoBf5/VF0u/aTQLwQ1ZjdC69ra6bSKiu0GXhNTlzDLUldZi5J+8pV02GfbSKLh4qwEAds59oXp4MGoKqsT+xuoG6DPLTNYwV1daiyvHLkmbO+xQ8XVsPXINr/5XH/R36IW9Z65j7oN2mOLR/Gt6XNMbQ5S9cejcjSDxGdIbcU8132d7bGRvGOqbYKgXu81GZYKquib87f+uIdTLDsP6N4fWs2P7YNp9zY8pmKHtjTW/tQNa2XZ7iouK4eHpIW0mIuo2uiSkagqvwGGII/o4N59QO8p09t/+oV/g7HsnxD77QQo8EDsF52L/Y7WM6OKtxuiYCTi5IMtqqbA9NVd74fEdzSW1x3dcxcYn7PDs2D4AgPzK69iQdaMkN+zP9ThWeiNEAODhEb3F0dEUj9449rq9GDxCeA37c/PkDGm57tduzct1tYTEnfD1C8C0aVMROqd5ZEpE1B11SUg5aVykTTarLzMib9Eh3LvofrFcN+LNcWbLCLMDp194DkNCf4WjT35nFlSugcPFde2HOOLECwdtDirTiROGVQ5iQAmWTb1Rrmttmdb0d+iFgwuat/3Pef2w9JtGs6D6d8WNEVZVXRMuGsQfb0ronNnIzEjDwYNZSEjcKe0mIuo2uiSkXHwGoq60VryP1BlC0F05rsO52P9Iu0XtBaLTqP7Spk4LHtMHW49cM7tP1Fke9/SCs31zKPV36IWHR/RGQm6jeH/rn4XXUWq4jgXjbQtAW3h4eqC4qFjaTETUbfTKy8tr0mg00vYOqy8z4uiT36HufA0AwGGYEx76+lHYD1KgaNMpsxJeW/0Ow5yg9huMRkMDxnwwGZWpJTi5IEtcz86lHx5MeFi8hyXdtul223Oo+Dp+t/MqPpndT7zvJPXlyWv4/e4bo7JBSiBjfnNJb07iVWhdb9w3MnW+qgl+2+tRZjI6WjbVzmzZVd83YkNW83R35369sDO0r/g8Vn3fPCEjcU4/oOW5Lt7TgJQX+onlxPYkJO5EcVExPyNFRN1Wl4UUyQ9Dioi6O+vDB+oRPD2Go7yiEkajbZ9XIyKSG4ZUDzZ50kS4u7nCP3AW/3YfEXVLLPcREZFscSRFRESyxZAiIiLZYkgREZFsMaSIiEi2GFJERCRbDCkiIpIthhQREckWQ4qIiGSLIUVERLLFkCIiItm64yHVWN2AY8H7UJlaIu0CWr4CJHtiCvYP/QKZo3fhynGddBEAwKnXstvsJyKi7ueOh1R77AcpMDknCFOOPgWHIY7SbiIi6sFkH1K2GvPBZPieflr8MkQiIur+uiSkKlNLcOq1bBRtOoX9Q7/A/qFfoGjTKbG/aNMpnHotW/z5ynEdjvw2DfVlN77nqL78Rlkve2KKWV9brhzXIXP0rjbXq0wtEZ+X9LkBQH5BIWYEhSAhcadZOxER3VldElIAUP6PYtQUVGH6hecw/pvHcCH+TIfuD5197yQeiJ2C6ReeQ//xA3Fm7XHpIla5eKvhe/ppjP/mMdg595V2ozK1BKfDj2D8N49h+oXnMP3Cc/B8Y4x0MSIikqEuC6l7JrhC++ffAAAcNS5QDHVC/cVa6WKtGh0zQSzVuc0YjqofL1kdFXVEY3UDSrbl495F97dZBtSO0uDblCSEzpkt7SIiojuoy0LKmprCK9Imm9gPdrQ6Kuqoa9WNqCuthZPGRdpFRETdwC0Nqc6GQ/3FWti59EUfZztpV4f0cbbjjEAiom7sloTU+e0FqCuthYvPQLGtvrQWjdUNqC8zIm/RITRWN5itIxBKdKqHB9/0aMrOuS9UDw9G4ZrjbZYOOXGCiEieeuXl5TVpNBppe4dUppbg5IIs8WeHYU546OtHYT9IAbQEz4kXDuKXI5Wwc+mHEW+ORenn/w9e8Q+jj7Od2CcY8eY4cXKDdNsAYOfSDw8mPAwXbzWKNp3C2fdOmPVLH1+6jOn20RJSy5avwNzQEN6XIiKSkS4LqZJt+Rj32bSbHv0QEREJbkm5j4iIqCswpIiISLa6pNxHRER0K3AkRUREssWQIiIi2WJIERGRbDGkiIhIthhSREQkWwwpIiKSLYYUERHJFkOKiIhkiyFFRESyxZAiIiLZYkiZMBqNWLosAtmHc6RdsiR8D1ZUdIy0i4ioR7grQioqOkaWX2iYX1CIBWFLoNPrpV1ERHS3hFRPpR2lwbcpSYiMCJd2ERH1CD3ir6AnJO5EbNx28efod1dj8qSJFu2CAP9HxBO7Tq/Ha4uXo7T0otgvrC9ISNyJ+IQkbFi/DtpR5r8rYX2vsWMswkK6bR9vL0StW4Vao9HiMQFAqVSKj5F9OAdJXyVj3u/mYsWf1sJgMJg976joGKSl7wMALAqbb/aNwtmHc3DwYBY8PD3E1y9dxnR9gXQZa3R6Pda+8x5CngnGuqgYGAwG8XUpFM3fhGz6e5e+ptS0vaiurkHhmbNY8PvfYdvfP4Fm5AhxfenvzNpzauv9IKKepduPpPILCpGRkYnkXfHIzEhDZkaaGDChc2YjMyMNAf6PYFHYfLFfONEbjUasfec9BM0MRGZGGtJTd8PH20vyCJ23devH4rYzM9KwcUM0FAoF1CoVEuM/wra4zdCO0ojP/duUJLOT7rHjuYh+76/4dEcstsVtRu6JPOQXFAIAIiPCxddmTVr6PhQXFSMzIw3R765Gyp5UsayYfTgHuSdPIXlXvPiaA/wfsQiD1pSVV2Dz+3H4dEcsknfFo6y8Asd/OgG0vB+OjgrxNc8NDcGHsdthNBoBAJk/ZCPkmWBMnTwRiV/uwl/Xv4uamlqcKzlv8X4k74pHyp7UbnOPkIi6XrcPKQAovViG/Pzmk3dHCCfW4CdnSLvMhM6ZbREgAiFwpKMowZEjP4on6I5SKpVYsyoSapUK9w4fhkGD3KHT2Xb/ysfbC0vfeBUAoNVqoHR2xqVLOgDAwYNZ8Bo7BmqVCgqFAhMmjEd5RaXNz1Pp7Cw+L7VKBa+xY1BUXAK0lCCfCrrx+3zIxws1NbWobdm2j7cXvB8cBwAImhkI9UCVuOy5kvNwdnYS3w+1SoWgmYE4eDBLXAbtvB9E1LN0+5DSjtJgRWQ4It5aDV+/ACxdFmHzyfZWE0LCP3AWfP0COjwi0IwcgXuHDwMAKBQKbNwQbVaG7CwPTw/knjwFnV4Po9GII0d+xIQJ48Vy3c0QZkj6+gXA1y8AC8KWwFBdLV3MKp1Oj8wfssXfl69fgNVyLRHdPbp9SAHA5EkTxfKSu5srIleskUVQCcGSmZGGbXGbsS4qpsNBdSt4egxHaelFBD89F/6BswAbRpO22rjpbwCA9NTd4utWOjtLF2uVj7eXuK60PEtEd58eEVKmPDw9pE3w8PSwWnZTq1UoKyvHuZLzQMsJ9tjxXLNl0HKjfkZQiHg/yJROr8ecuS+3+1mlgQPVUCrNT9YDB6phqK7uVKmys4xGI5K+Skb0u6st7pV1FXc3VygUChiNRnwYu93mkZRWq0FZeQWSv/5W2mUmIXFnp0amRNT9dPuQEk5Ywr+UPan408o3zU66wihBKCMJgaIdpUFQ0AwsCFsCX78AeHh6tDoRoaOE8BKeV/DTcxE0M9CsXKdWqbDk9TCxVNlaEEqZbjstfR9i47bD1y/Aps+CKRQKhDwTLD6m8K+ryqSzZgUhKzsHvn4B8A+chTFjRts8klKrVPhgy3qk7Ek1e27SMPL0GA603Fsjop6tR0xBJ9sZjUZErliDkGeCxcAU2iZMGG/zDL87Kb+gEMuWr8CKyPAuuUdHRPLV7UdS1DG1RiPKyivM2s6VnEfhmbPiCEWuhEkZC8KWMKCI7hIcSd2Fsg/nIOKt1WZt0g8wExHJAUOKiIhki+U+IiKSLYYUERHJFkOKiIhkiyFFRESyxZAiIiLZYkgREZFsMaSIiEi2GFJERCRbDCkiIpIthhQREclWjwmpQ1tnY/dyNSrP8OsbiIh6ih4TUp3VYKzCvr9MRvG/vpB2ERHRHdZjQmrKwp2YtV4H15FTpV1ERNRNdfu/gl55Jgs/xD6JxvpqOPQfjEfCf4DjgObvRWowViFr2zMYMekl5H4dibqqi2bLHNo6GxdO7pFuEvc/+geMC3pH2mxB+LJA4Svnfby9ELVulfitwMKX8xkMBnGdIUMG44Mt66FWqcy+MkOpVGLD+nXQjjJ/L6KiY5B78pS4DhHR3aTbj6RcR07FrPU6+L3xPfraK6XduFZfjaNfvo5J8z5H8HsVcOw/BGd+iANaRl/B71VAde9DmPjiDoRsqUfIlnqbAgoA0r/bj1cWzUdmRhrSU3cDAJK//hZoCbAPY7djbmgIMjPSEP3uaiiVSqxZFQm1SoX8gkJs3hKLbXGbkZmRhhWR4Vi1Jgo6vV7yKEREd69uH1K2eOjZ9+E6cir6KvrDTTsdhrL/SBfplKeCZogjH4VCgQkTxqO4qBho+bbbsrJyPOTjBQDQajVQKp2h0zWH0NFjuQgyWd/7wXEY5O6G/PxCcfsAEBkRjsT4jziKIqK70l0RUrdKfkEhZgSFwNcvAL5+AYiN2y72DRyoBnr1wtFjzaVAIXy02uZQKi4qRmzcdnFd/8BZYtmQiIiaMaQ6SafXY9WaKLGcl5mRhkVh88V+R4UCg9zdxCCKeGs1lrweZjYiWhTWXCo0/cevcCciuuGuD6m+iv5Q9B+C88d3Sbts4unRPEkjv6AQ8QlJYvvxn04AANJTd1sNoGnTpiI+IQn5BeblPamo6BjMCAppdzkiop6o24fUiZSVSFpsj4xNv4WhogDfvD0SKSs9UXu5RLpoq7yf+St0535E0mJ7JC22x4mUldJFLKhVKgTNDETEW6vh6xeAVWui8OgjfmK/94PjAAD+gbPEkp6vXwCyD+cAACZPmogVkeFYELZE7Jsz92WLiRMenh4wGAxi2ZCI6G7S7aegy1X24RwkfZVsNiU9+3AONr8f16Hp5NmHc7AuKsbq9HQiop6u24+k5Kqo2HIkd/BgFga5u8GxJbTaotPrMWfuywwoIrqrcSR1i0g/6AsrH/YlIqK2MaSIiEi2WO4jIiLZYkgREZFsMaSIiEi2GFJERCRbDCkiIpIthhQREckWQ4qIiGSLIUVERLLFkCIiItliSBERkWwxpIiISLYYUkREJFsMKSIiki2GFBERyRZDioiIZIshRUREssWQIiIi2WJIERGRbDGkiIhIthhSREQkWwwpIiKSLYYUERHJFkOKiIhkiyFFRESyxZAiIiLZYkgREZFsMaSIiEi2GFJERCRbDCkiIpIthhQREckWQ4qIiGSLIUVERLLFkCIiItliSBERkWwxpGTAaDRi6bIIZB/OkXZ1ifyCQiwIWwKdXi/tkqX8gkLMCApBVHSMtKtbqzyThd3L1Ti0dba0646Kio65Zfted5CQuLND+5pOr8fSZRHd5niyRqfXY0HYEuQXFEq7WpVfUIiVb6+F0WiUdtlMOLZnBIWYPXZUdAx8/QKsvg/dPqSKvngcp6LtxX/5m4fhqt72X7wcbNz0N7i7uWLypInSrjZFRccgIXGntPmOyz6cg6XLIm5qZyZzh7bOxomUldLmLjFrVhA2b4nt0Amrp8g+nIOUPalYuPAlaVer1CoVJkwYj7XvvNct93Gj0Yi177wHPz9faEdppN2t0o7SwMnRERs3/U3aZROj0YgPY7djbmgIvk1JMnvsyIhwpKfuRnlFpcUFU7cPKQBw8vDDmIh6jImoh8v9T+Pnz/26TVBlH85B7slTHTpIejrtKA2+TUlCZES4tKtbcx05FbPW6zBlobwuLLSjNFiyeBE+jN3eLU+6naXT67H5/TgseT0MapVK2t2m0Dmz4e7miuSvv5V2yZ7wnIOfnCHtatfSN161GiS2qDUaUVNTi4d8vKRdAACFQoEJE8ajqLjErL1HhJQp9fjXAQDVRfsBAI1GHc5s9xFHWkVfPC4uK/Tpj8WJI7LTMQNQfTZdXEZ/LM5spHZx7xti31V9IfI3DxP7zmz3QaNRJ/YJ2z4dM8CiHy1XFklfJbd6kCQk7oSvX4D4T9gxhPa09H2Ijdsu9psOlbMP54jtC8KWwFBdbbLlZlHRMZgz92WrZQudXo85c1+2OvwW+oTtC6MmYSgf8dZqHDueC//AWfD1CzB7DGH0Z/raTHd4Ydjv6xdgMUrMPpwjrt/aMqbrt7aMNbZs+2Yc2jobSYvtkbTY3mJEdCJlJU6krDRbpvhfX4h9SYvtceHkHvznu7+I/R0pGZruC9Lft8D7wXEAgOM/nZB2tSshcadF+aY9jUYdfv70v6E/FiceQ9IqiPTY0x+LA0yOrXO7n8GpaHtc+OZlnNnuY3bstnXcC9L37ofX2DEWFQxb94VZs4KQkZFp9fi5GRf3viE+b+n5SHrOkS5j+juTrouWYzcjIxOvLJoPhUJh1ifcdhBes7VqiEKhQMgzwUj6Ktmi71bpcSEldf4fc2Hn6IYxEfXQvlGKxtoKs6ABgIt7l8BercWYiHoohkzEpZy/Ai07xKWcGHiEpIgjtcGPbQJaDoJzyc/C5f6nxW0Ljye4VlOByqy1+NVLR6BZmIdrNRW4cvrGzn6u5Dxqamqh1VoOufMLCpGRkYnkXfHIzEhDZkaaeDCFzpmNzIw0BPg/gkVh88V+YeSRX1CIzVtisS1uMzIz0rAtbjOUzs6SR+i8rVs/RtDMQPFxN26IhkKhEEdA0e+uho+3F9JTdyMzIw2J8R+ZhXBs3HYUFxUjMyMNi8Lmm+3wkRHh4muzJi19n7hu9LurkbInVTxJCKPS5F3xSE/dDR9vLwT4P4LQObad0Nva9s2asnAnQrbUY+jYmdIuAMB/vvsLlIPuR8iWetz/6B9QeGALGoxVGBf0jrje/Y/+ASFb6hGypd7m0ZhOr8e/T+eL71X0u6ux+f04i9clXMUePJhl1n4rXWuoQXlGBIY+sR3aN0rRx8kNuh/fB1qOPWNpjslxtxmVWWvFELtWU4Hr9QYMfmwzfsmLh8o7DIohE2E4kwrYcNwbjUYcOfIjpk2bKraZsmVfuHf4MDg5OSI/3/Zwbk/12XT0tncRX/c9Y19EWUakeHFbmr4Y9q4PYExEPTxCUtC7ryPc/aLhPMIf1WfTUZm1VjxfuftF48I3882CPz+/EE5Ojrh3+DCTR22W/t1+vLKo+XySnrobMBl1mdJqNaipqcW5kvPSrluix4VUafpi9HFyg8vo2biqL0RjbQWG+G8BANgp1FB5h6Gm5AezEY2Th58YPi7aYDTWVoj9TQ214o5v6srpnbhWUyGO3OwUagzyi8LVX86KO0Wvvo4Y+sR29FNp0E+lgb3rA6i/9G9xGzqdHk5OjnCUXNEISi+WdeoA2L07BUFBM9qtN0dGhFsEiECtUiEx/qNWS25HjvzY6SspH28vLH3jVQDAQz5eqKmpRa2N2zJdV6vVQOnsjEuXmt+rgwez4DV2DNQqlXjSLa+otPl5trXtW23o2JkYF/QOAGDwrx9HQ50BDXVXpIt1mFqlwu9fflH8ua3X5ekxvEO/L0HonNkW9xhsJZxg7RRqOA3/b9Tr8gEA/VQaDH3iI3E5Z8/p6NXXEVd/OQu0HFsDJ/4PAMDedQxcRt+4ELHluBdKT2q15b4PG/cFhUIBdzdXi/LUzXAe4Q/3aWvFn5UjA3H9ajWuG/W4qi9EfWUeXLTBAACHwePR9577xHOK4UwqXO5/Gs4j/AEALqNno4+Tm1hVAoCi4hK4u7lajKIA4CmTc4Zw/BQXFUsXg6NCAScnR+h0HbuAE35/AweqpV0iT4/hFueWHhFSNcUZ4hC3sbYCnqHfwU6hxtVfzqLhl59RuPUBsf/i3iXS1cU3HQBUPmEYOf8Y7BTqlgNlO345+SlOWSlH9HFyQ2+F9Z3cFm3t3NpRGqyIDEfEW6tbHXrfKcLBK5TzrJWP2jJhwnjxINGO0mBb3GarQdlRHp4eyD15Cjq9XrxSNn2su5VpCTT46bkovVgmXQQAoFarOnTBcKuZTooq3PoArtVWShexypbj/tIlHQwGg1lbZ3h4elg9kXeWtExZnBSEpoZaAEBvhQp9nNxwJT8ZAFB38Udcq6mAcmQgAKBelw/9sVhx3fxNQ1Bfecps+209V6FcL+wrsXHbpYsAnQhn4fbAh7HbsXnjn9s81idPmoiQZ4LhHzhLLLH2iJAynTghBIygj6MrNAvzxH5ry7TFeYQ/RodfxhgrkzKu1VTguvHG1cTVX4rEHcoWnh7DpU1mJk+aKJZp3N1cEblijSyCSqFQYOOGaLGUuC5KHlOYPT2Go7T0IoKfngv/wFlAJ28O9yQJiTvFEmhmRhqSd8VjyOBB0sUAG0b2t9PFvW+gvjJPPHY1C/PQx9FVulir2jvuBw5UQ6lUSlfrsOKiYnh4ekibO024XaB9o1Qs6fXq6wi0jAjtHN3Ei/LipCCzkRMAqHwWmb3mMRH1UPmEif2tPVedXo9Va6IwNzREPOcsCpsvXQxoKZWWV1S2e/4SCFWZVxbNx5Klf7Qom5pKSNyJgwezkJmRJpbpe0RItcZh8Hj07ueM0vTF0q5OsR/4a/H/zp7TAUCsoTcaddAfj4PL/U+jn8q2skdHrlyt7Vwenh4WQ2Npu7DzdeXECVPNB7v5/S61WoWysvLbVrOGySSU6HdXiweZcK+sqwg3ljs6SaArKAfdj4r8/WgwVkm72jXI3U0Mnq1bP251JNVWKagtnZk4YQvTSkVp+mKbR1K2HPedLVmZautkLUxWae/4scbO0Q12CjUajTqUZUSKF77VZ9Nx9ZezZuEr3KZAS0Xol5OfWkyWMNVeSVd4LfkFhYhPSJJ2AzaUSlsjlPmkZVMp6bmuR4eUnUINz9Dv0FhbIQ6Bm4f+5hMnWiOdXSTc5BXuMd33fAau/GeXOLS2c3Qz22naI9x4Td97o2YsMJ1Z5OsXgJQ9qfjTyjfNTiDCKEEouwkHhGn7i/MWYcnrYRjk7iaudzOkM/uCn56LoJmBZjOktKM0CAqagQVhS+Armd3XFtNtm85ctDazSkqYdSSUR4V/XVkmFer0BoOhQye32sslSFnpaTFLTzrLry2jH/0DACD5TbcOze7zf2w6ysorxH1E4ehodSTV3kSC2009/nVcq6lA/qYhOBVtj972SptHUrYc98J7eTOz1Nqa+KTVajBkyOA2A8GagRP/B8bSHPGconB/UBxJOY/wR797RpiVMU1fl8onDO5+0ShOChL7pLcotFoNysorLGZxqlUqBM0MFI+fVWui8OgjfmbLCNqafHEr9MrLy2vSaCx/yXR7ZB/Oweb34/DBlvVt1mqpbUajEZEr1iDkmWAxMIW2CRPG2zzDrz3Zh3OwLioGG9av69REAbnKPpyDpK+SEbVuVYdHUt2VTq/Ha4uXY8nrYRbT0G0RFR0DD08Pq/uWsO+5u7m2Ovmoo6rPpqM0fTE8n/1WrNZUn03HhW/mY+gT283Kfm1JSNyJI0d+7NR7be04s5VOr0dE5GosD1/c6rEjXJCa/k579EiqO5g8aSK8xo7B1q0fS7uoA2qNRpSVV5i1nSs5j8IzZ62WYzpKGOX1xIASPrJg7bMzPZlapcKS18OsTslvT0LiTpRXVFq955mQuBP+gbO6NKDQyj1vYeZxv3tGmLW3RXjO1qaXt6ezfx0HNpRYhdG89HjlSEoGbubqhG7IPpyDiLdWm7VFv7uav9N2REXHYNq0qXft7ykhcSeKi4ptDhSdXo+177yHP61887ZXP4q+eBw1xRniz3aOrrjv+Qyb74MLbBnVSOUXFOKzzxOxInJ5py9m8gsKsWz5CgAwu9iLio5BWvo++Hh7WYzwGFJERCRbLPcREZFsMaSIiEi2GFJERCRbDCkiIpIthhQREckWQ4qIiGSLIUVERLLFkCIiItliSBERkWwxpIiISLYYUkREJFsMKSIiki2GFBERyRZDioiIZIshRUREssWQIiIi2WJIERGRbDGkiIhIthhSREQkWwwpIiKSLYYUERHJFkOKiIhkiyFFRESyxZAiIiLZYkgREZFsMaSIiEi2GFJERCRbDCkiIpIthhQREckWQ4qIiGSLIUVERLLFkCIiItliSBERkWwxpIiISLYYUgAqz2Rh93I1Dm2dLe0yU3kmC2lrx6L2com0q11VdU2Ytu0qvjx5zax91feNUK6ps2i/GeermqDZUAflmjoMjqrHoeLr0kW6TELiTkRFx1i0JSTuNGvrqOzDOfD1C8CcuS9Dp9dLu4noLsGQ6oGG9e+FwmUOOL3UHoOV0t6uk304Byl7UrFw4Utm7f6PTUfKnlRkH84xa7eVTq/H5vfjEP3uaiTGfwS1SiVdhIjuEgwpAK4jp2LWeh2mLLy5q//OWPNbOxhWOeDZsX2kXbImBMmS18MsQkStUmHNqkh8vCO+U6OgS5d0UDo7Q6vVSLuI6C7TrUOq9nIJUlZ6ovhfX7TaJvyctNgeSYvtse8vk9FgrBKXP7R1tth3ImWl2C4o/tcXYn/Gpt+iod4gXaRVpmW3YX+ux7HSG2U3W0pyQilQ+CeUBKvqmhD4SXPpUNiGZkMdzlc1STfRKtNtmz6+sE3TbVlrS9+7H15jx2DypIlimyntKA1G3OeB9L37pV1ERDbr1iHlOGA41PeOx/nju8S2Gl0x+tor4TpyKhqMVcj++7PwnPA8QrbUI/i9CgDAkc/mi8tPWbgTIVvqMXTsTLFNUHkmC7n/iIDfG98jZEs9/N74Hn3tbaufVdU1YW5SA0K9mkdK5/9oD58hN37d7ZXkDhVfx57T13B6qT0MqxwsRls1V4Gl3zRix9P9YFjlgIeG9MbytAazbbTmUPF13OMAcbsLJ/TBW3sbUVXXhCn3Nj/HQ+duhGbyqWt4aEhvDOvfCwBgNBpx5MiPmDZtqriMNdOmTcWRIz/CaDRKu4iIbNKtQwoARk1fiivl+eJkhov//ieGej0JxwHDUZqXitqqUoz87zAAQF9Ff3gFv2e2fFsK9m+E58QX4Dqy7ZOxNf8sbD7JL5vS+TLeRYN5WEhtfMIOUzya38LgMX1w0dAcju2Z4tEb/zPFTvz5sZG9YahvgqG+OTxDveyQfKp51Ha+qgkFl5qweNKN5WuNRtTU1EKtbvtekVqtQk1NLWo7GFI6nR5OTo5wVCikXUR0l+n2IXXP0LHo66BE5ZksNBiroCs6gsG/flzsd+w/BH0dXMzW6Q6mePTGxifs8PvdDVCuqcO0bVfbDaBSw3UY6qWtloSZhkK57/EdV2G4emPbj43sjYJLTThf1YRD565j1MBeYhii5Z6RwdB+2XPgQDXQsrwt8gsKMSMoBAcPZmHjhmgoGFJEd71uH1J9Ff3hpp2O88d34ZcLJ4GW4BLUVpWioe7KjZ8vl3TovtKd9OzYPmJJbrASCPqsoc2gGqLsDaW9tNVS2D+ay4Ln/9hcSvznvH5Q9msu5QHAA+69oLTvhUPnriP51DUEjzEfDQ4cqIZSaaVGKSGEkxBW7dGO0uDblCRMmzYVS5dFsExIRN0/pABg8K8fx9W6Kyg5/hVGTHoJfRX9gZZZewBw5oc4AECDsQqFB7bAc8LzcBww3Gwb1igH3Y+K/P1oMFah9nIJDu943uaAG+bSCxeuXEdeeXOohP2jwWziREdpXVt/q85XNWHldw14eERv9He4ETZtGawE+jv0QlVdE97a22g2kurv0Auv/lcfrNjbgCv1wOMa88d2VCjg5OQIna7tmXudLdt1tkxIRD1P62e+bsR15FT0c3DB+dyvze4fOQ4YjkfCf0DRkc+RtNgeyW+6QdF/CMYFvQNIZv5dOLkH//nuL2az/EY/+gcAQPKbbvjnugfh9WQUHPsPEbfflikevTH3QTs8vqO5rKZ17Y0Z2hu/7i9PXoNyTR1Gb6xHoa4Jj++4ajbLTjqzLyG3EfEhfc1CSCgFjt5Yj1AvO6z5bfN9o/a2vXiSHQ7+3ARly6zD8UN7m42kAGDKvb3Rqxfwm2GWwadQKDBhwngkfZXc5mjn4MEsTJgwnmU7Iuq0Xnl5eU0aDT+P0p1U1TUh6LMGvPpffW7Z56vOVzUh6LOr2DKzr9n9KIFOr8dri5djyethVqeh5xcUYn3MFkRHrbb4HFV7bmZdIupZLM8+RACWpzVYTJgwpVapsOT1MGx+P87iA7s6vR6r1kThpXlzOxUyHZ1wQUQ9l/UzEN215iQ2lycvGoC4p/pKu81MnjQRQTMDsXXrx2bt6Xv3I2hmoNURli3UKhVemjcXC8KW8G/3Ed3lWO4jIiLZ4kiKiIhkiyFFRESyxZAiIiLZYkgREZFsMaSIiEi2GFJERCRbDCkiIpIthhQREckWQ4qIiGSLIUVERLLFkJKJ/IJCLAhbwr9TdxN+NpThoZRX8faxT3CgLBejd8/HZ2f2SRfrdj47sw+jd8/HgbJcvH3sEzyU8ip+NpRJF6Pb5G59P0xfa+iBKPinR+Cyjd+vdzMYUreQ0WjE0mURyD6cI+3q1rrj6/rszD54Jj2Pt499Ira9fewThB6IMluO6E67XG+Af3qEGIR3O4YU3TE6vR4LwpYgv6BQ2gV0YnR5Tz8nDLR3gcZlKDyc3KG2V2K4s6vYr3ZwwcnLP9+Wq7+uNNzZFWp7JTyc3KFxGYqB9i64p5+TdDGbJCTuRFR0jLRZFBUdg4TEndLmbq2r97OufD+syb18Fo52DggY9hvsL/1J2n3HmL7WkS5DoLbvjwH2Suli7ero+8G/gn4TjEYjIleswbHjzVc7Q4YMxgdb1kOtUiEqOgZp6ZalpkVh8xE6ZzYAIPtwDiLeWi32ma4viIqOQe7JUxbtaHkzly1fgbmhIeI2BW09N7RsV3h+SqUSG9avg3aURlwv5Jlg8as2EhJ3orioGJER4Ta9Llu09dxh8ruJfnd1p7/yw9RnZ/bh8/+3D452DpjlMRUvjHwEbx/7BGeulCLh4UhxmT8d2yGus9ZnHl4Y+Qh+NpRhUfZGeDi7Y++Fo5jlORWnLhfhXE0lPpy8BA8P8sLlegPmHFiH/KrzAIDJbmPE7QoOlOXilezNeMbTF//r8zuzvtuhrX1JeN8BIGrdKpu+TTn7cA4OHsyCh6cHYuO2A1b2g4TEnWKf6X6WfTgHqWl7UV1dg8IzZ7Hg97/Dtr9/As3IEeLjmx4fput2xO3ez7qCsF8uvD8Qm04l46Op4WIY/Gwow+yM/4Wu7oq4vMLOXtwPTfdh03ZToQeikH+lBDv93sZ9ykFmfbdaZ94PjqRuQvLX38LdzRWZGWnIzEhDYvxH4sEfGRGO9NTd8PH2QvS7q8VlhDcmv6AQm7fEYlvcZmRmpGFb3GYonZ0lj9A5wgmnteeWkLgT5RWVSE/djcyMNMwNDcGqNVE2XUm297pskX04BwvClmBFZLjV9RISd2JdVAy2xW3u8hPHSxp//FB+UtqMnw1lOK4/g6KQz1EU8jnW+szDxn/vFu81XKq/guqGOqz1mYfdRVl4/lePwFs1UrzSfe3w+1Db90dRyOc4/uSH0NVXmZUW7yShPFteUYmP//6BRUDp9Hq89PvX4O7mio0bom0KKEFa+j4UFxUjMyMN0e+uRsqeVHE/yi8ohKOjQtxH5oaG4MPY7TAajQCAzB+yEfJMMKZOnojEL3fhr+vfRU1NLc6VnLc4PlZEhtu8jwru5H7WWZfrDcipPI2AYb+Bh5M7Kut+Qe7ls2L/iqMfQ+syHEUhn2OH7x+gsLPHW+Oew8ODvHCgLBcb/70bO3z/gKKQz/HWuOcQfiRONvfLOvt+MKRuUu7JUx06cAS7d6cgKGhGu1eGkRHhZgFjSjtKg29Tkize8OM/nUBZeQUWLnzJrB0tJ6SUPakIeSZYPBkFPzkDg9zdkJ9vffjdlVrbEQVR0TFI2ZOKT3fEtvu76YyxA+5DZV2VRa3/PuUgbJiwSPx5qvsDUPTph+KacgCAok8/LLw/EACg7T8MTwy/8dx/NpRBV1+FdQ81/74H2Cvx/K8eQU7labPS4sODvHB61vbbOopqL4DyCwrx4rxFCJoZiMiIcLM+W/h4e2HpG68CALRaDZTOzuI3KmtHafBU0Axx2Yd8vFBTU4valpDy8faC94PjAABBMwOhHnhjHz96LNfs+PB+cFyH9tE7vZ91Vu7ls6hprMNU9wdwn3IQ7nVyFy+EfjaUIf9KCQKG/QYA4DVgBO51ckXhlQsAgP2lP2HGsIniyOmJ4RMx0N4FWeV5Jo8AJDwciaNBf7uto6ibeT8YUjchdM5seI0dg+Cn58LXL0A2tfyi4hIMcneDYytXxEpnZ6jVlqF3qxmNRhw58qO0WaTT65F78pS0uUvd088JszymWq31hx6IgmfS8/BMeh5+acuhs/HeVXFNOc7VVMIvbbm4vmnZ8E7Kzy9EaelFabPo6LFcGAy2vc6OEkZwvn4B8PULwIKwJTBUV0sXs6q4qBixcdvFdf0DZ4ml6/bIYT/rrP2lP+FeJ3cxQAKG/Ua82BHuuaad/xfQEmiX6q9g+pAHAQBnrpTi0zPfifug99eviOXnO+lm3w+G1E2KjAhHZkYaknfFI2VPqiyCytNjuLTJjKG6GjrdjdFfrdGIsvIKs2VuBYVCgY0borEiMhwLwpZYzA5Uq1RIjP8IQTMD8eK8Ra3eWL1ZU90fQE7laZQZb/wO3j72CfKvlCAjYD2KQj5HRsB6qDtwU1htrxTXFf6l+0d36sZyV5o8aSLSU3ejvKISS5dFiKU2Qeic2eK+29aEis7YuOlvACCWlTta0l4UNl8sFQr/rF2FS8llP+soodSXXXHK7GLnXE0lci+fxQB7JdT2/cX+eZl/MRs5AcCLIx812weLQj7HCyMfMXuc2+1m3w+GVBdxVCgwyN3NrE2hUMDdzRUHD2aZtQOAh6cHjhz5EUajETq9HqvWRFm9yoyKjsGcuS9bLSnmFxRiRlCIRTBqtRqUlVcg+etvzdrRskN4jR2DpK+SxRNW+t79GOTuJpZe0DIaQ0sdWbjxLWjrddli8qSJ2Ba3GeuirM8kC50zu9UduivcpxyEia6j8e9fis3aTWdprTj6sc0jKa8BI+Bk54AVRz+WdpkRPrt1u+9VCScJdzdXvPT71yz2JbVKhY///kGrQXYz3N1coVAoYDQa8WHsdqv7uDXTpk1FfEKSxQmrI+7kfiZ85KEjH3H45WoNahrrxHtKwv3Ne51csb/0Jxwoy8W5mnKziyHT0nHAsN/gq6JMi1K2VOiBqDvy2a7Ovh8MqU6SljL8A2fB3c3V4v7QwoUvIffkKXE54c0JfrK5Vu8fOAsvzluEJa+HWYRcZ6lVKnywZT1S9qSKj2sadJER4XB3c4V/4Cz4+gUgZU8q/rTyTSgUCigUCryyaD7iE5Lg6xeApK+S8cLzc6QP0errspV2lAaf7ohFRkam1RORsEN/vCPe4qTaFaYPedAshF7S+ONS/RV4f/0KPJOeh3NfB5tHUgPslUh8eAV09VXiFbD0M1lyEBkRjqCZgdi61TJMTYPM2sVNZ8yaFYSs7Bzx+BgzZrTNI6nJkyaKJyxr+7Ct7tR+NtX9AagdXKCrr7L5Iw9Z5XlwsnOA14ARYtsAeyUmuo5GTuXplntQ7mZlZdP97IWRj+Ctcc9hXuZfxL47EUZt6cz7wSnoRERdTPhIgtq+v8VHETrrQFkuVh79GJ/5Roj3rA6U5SL8SBxiJoRZTDXvKTiSIiLqQm8f+wTeX7/SpQEFACXVlTBeu2rWJkwA8nByN2vvSTiSIiLqJkIPRCG74sZMOLWDyx35UO7txJAiIiLZYrmPiIhkiyFFRESyxZAiIiLZYkgREZFsMaSIiEi2GFJERCRbDCkiIpIthhQREckWQ4qIiGSLIUVERLLV7UNK+E6lGUEhVv/0OxERdV/dPqS0ozT4NiUJKyLD8WHs9i79wjYiIrqzun1ICbTa5j+SW8uQIiLqMXpMSBERUc/DkCIiItnqMSHlqFAAAPLzOXmCiKin6DEhpVAoELVuFZK+SsacuS9Dp9dLFyEiom6mx4SUTq/HkqV/xCuL5iMx/iOoVSrpIkRE1M30mJACACcnRwwcqJY2ExFRN9WjQoqIiHoWhhQREclWjwkpYVafMMuPiIi6v24fUsLf7ot4azVCngmGgiFFRNRj9MrLy2vSaJr/pBAREZGcdPuRFBER9VwMKSIiki2GFBERyRZDioiIZIshRUREssWQIiIi2WJIERGRbDGkiIhIthhSREQkWwwpIiKSrS4JKZ1ejzlzX4avXwCyD+dIu4mIiDqlS0JKrVIhMf4jbIvbjI93xPOr24mIqEt0SUgJ7h0+DO7urrh0SSftIiIi6rAuDan2REXHYM7clznSIiIim9zWkCIiIuqILg0phUIBJ0dHHD2WK+0CAERGhCMx/iOoVSppFxERkYUuDSm0BFFxUTFmBIUgv6D5K92JiIg6o0tDymg0YumyCEybNhXfpiRBO4rf+EtERJ3XpSEFAM7OTlCrrZfzoqJjOMIiIiKbdXlItcXD0wMGg6HVe1ZERESmbmtIeXoMh1KpxEM+XtIuIiIiC10aUudKzqO8vBIDB6rN2oU/m7QuKgYb1q/jvSoiIrJJr7y8vCaN5uZCQ6fX47XFy1FaehGLwuYjdM5s6SJEREQd1iUhRUREdCt0abmPiIioKzGkiIhIthhSREQkWwwpIiKSLYYUERHJFkOKiIhkiyFFRESyxZAiIiLZYkgREZFs/X8vBrVd0zeV5wAAAABJRU5ErkJggg==;" vertex="1" parent="1">
          <mxGeometry x="620" y="920" width="340" height="220" as="geometry" />
        </mxCell>
      </root>
    </mxGraphModel>
  </diagram>
</mxfile>
